<?xml version="1.0" encoding="utf-8"?><svg viewBox="0 0 2000 2000" xmlns="http://www.w3.org/2000/svg" xmlns:xlink="http://www.w3.org/1999/xlink"><style>:root>svg{display:none}:root>svg:target{display:block}</style><svg viewBox="0 0 27 34" id="academy-img" xmlns="http://www.w3.org/2000/svg"><path d="M13.64.02L13.5 0 0 1.4v24.61L13.5 34 27 26.01V1.41L13.64 0zm11.6 25L13.5 31.96 1.77 25.02v-10.1l11.68 6.93.02 1.25-8.02-4.75v1.23l8.04 4.8.02 1.3-8.05-4.76v1.22l8.04 4.81 8.12-4.83V16.9l3.62-2.15v10.26zm0-11.57L22 15.33l-1.48.88-7.06-4.19-.01 1.23 6.04 3.57-.06.03-.13.07-.86.5-4.98-2.95-.01 1.22 3.93 2.33-.93.61-.02.01-2.97-1.74-.01 1.23 1.94 1.13-1.98 1.19L1.8 13.58l11.63-6.96 11.8 6.83zm0-1.22L13.43 5.3 1.77 12.22V2.99L13.5 1.76 25.23 3v9.24z"/></svg><svg viewBox="0 0 40 40" id="alarm" xmlns="http://www.w3.org/2000/svg"><path d="M12.75 5a.75.75 0 000 1.5H19v1.52c-6.4.41-11.46 5.89-11.46 12.59a12.75 12.75 0 004.23 9.55c.45.4.5 1.11.09 1.55l-1.43 1.47a.68.68 0 00.97.95l1.88-1.93c.33-.33.82-.39 1.23-.19a11.88 11.88 0 0010.41.04 1.08 1.08 0 011.22.2l1.82 1.88a.68.68 0 00.98-.95l-1.36-1.4c-.42-.43-.36-1.15.1-1.55A12.74 12.74 0 0032 20.62c0-6.72-5.09-12.2-11.5-12.6V6.5h6.25a.75.75 0 000-1.5h-14zm7.02 4.4c6 0 10.87 5.02 10.87 11.2v.02c0 6.19-4.87 11.2-10.87 11.2-6 0-10.88-5.01-10.88-11.2 0-6.2 4.87-11.22 10.88-11.22zm.02 2.76a.78.78 0 00-.78.78v8.23c0 .42.34.76.76.76a.8.8 0 00.8-.8v-8.2a.78.78 0 00-.78-.77zm-5.68 1.2a1.09 1.09 0 00-.86.97 1.09 1.09 0 102.17 0 1.09 1.09 0 00-1.31-.96zm10.87 0a1.09 1.09 0 00-.86.97 1.1 1.1 0 102.18 0h-.01a1.09 1.09 0 00-1.31-.96zm-13.91 6.32a1.09 1.09 0 00-1.09 1.09 1.09 1.09 0 102.18 0 1.09 1.09 0 00-1.09-1.09zm17.17.13a1.09 1.09 0 00-.86.96 1.09 1.09 0 102.17 0 1.09 1.09 0 00-1.31-.96zM14.1 26.39a1.09 1.09 0 00-.86.96 1.09 1.09 0 102.17 0 1.09 1.09 0 00-1.31-.96zm10.87 0a1.09 1.09 0 00-.86.96 1.1 1.1 0 102.18 0h-.01a1.09 1.09 0 00-1.31-.96zm-5.21 2.04a1.09 1.09 0 00-1.09 1.09 1.09 1.09 0 102.18 0 1.09 1.09 0 00-1.09-1.09z" fill="#fff"/></svg><svg viewBox="0 0 32 12" id="arrow" xmlns="http://www.w3.org/2000/svg"><path stroke="#000" stroke-width="2" d="M0 6h26"/><path d="M32 6l-6.75 5.2V.8L32 6z"/></svg><svg viewBox="0 0 24 18" id="burger" xmlns="http://www.w3.org/2000/svg"><path stroke="#000" stroke-width="1.5" d="M0 1.25h24m-24 8h24m-24 8h24"/></svg><svg viewBox="0 0 134 100" id="cat-fat" xmlns="http://www.w3.org/2000/svg"><circle cx="69" cy="50" r="50" fill="#68B738"/><path d="M123.1 25.8a15.2 15.2 0 014.5-4.6c1-.7 1.6-.7 2.2.6.8 1.9 1.5 3.9.9 6a2.29 2.29 0 00.4 2.1c.6.8 1.1 1.6 1.6 2.3a6.28 6.28 0 01.9 6.2c-.37 1-.44 2.07-.2 3.1.2.99.2 2.01 0 3a3.75 3.75 0 01-2.7 3.2 5.21 5.21 0 00-3.2 2 1.05 1.05 0 01-.9.5c-1.2.2-4.2-2.5-4.2-3.7v-.6c.1-3.6-.1-3.9-3.4-5.4a4.38 4.38 0 01-1.8-1.2c-.6-.8-1.4-.7-2.3-.4-.9.3-1.4.9-1.3 1.9.3 2.42.4 4.86.3 7.3 0 .28.07.55.2.8 3.1 4.5 4.3 9.8 5.8 14.9 1.2 3.9 3.4 6 7.4 6.3.64.05 1.27.15 1.9.3a4.16 4.16 0 013.4 3.2c.7 2.1.3 2.6-1.8 2.6h-6.5a3.24 3.24 0 01-2.3-.8 11.71 11.71 0 00-3.4-2 7.26 7.26 0 01-3.4-2.6 28.59 28.59 0 00-4-4.5c-2.8-2.9-5.8-5.7-8.4-8.7a11.38 11.38 0 01-3.2-7.6c0-.9-.2-1.3-1.2-.9-.3.19-.65.3-1 .3-2.8 0-4.2 1.7-5.2 4.2-.9 2.1-2.1 4.1-3.2 6.2a10.4 10.4 0 00-1 4.2c0 2.4.6 3.2 2.8 4 1.4.5 2.7 1 3.4 2.4.8 1.6.6 2-1.1 2.1h-6.8a1.88 1.88 0 01-1.9-1.1l-1.8-3a6.05 6.05 0 01-.7-5.4c.43-1.74.47-3.55.1-5.3a8.42 8.42 0 011.7-7c.6-.7.6-1-.4-1.2a50.06 50.06 0 01-11.87-4.13.1.1 0 01-.03-.07c-3.2-1.2-3.8-1-4.7 2.3-.8 2.8-1.6 5.6-2.2 8.5-.7 3.2.1 6.2 1.1 9.2.4 1.2 1.6 1.1 2.5 1.4 2 .6 3.7 1.4 4.5 3.5.7 1.6.6 1.8-1.1 1.8-1.7 0-3.4-.1-5.2 0-1.52.03-3-.47-4.2-1.4-4.8-3.2-6.2-8.1-6.6-13.4-.2-3.3-2-5.9-4.1-8.4-.4-.5-.8-.7-1.4-.3a44.31 44.31 0 01-6.7 3 26.71 26.71 0 00-12.2 8.8 10.63 10.63 0 00-2.2 5.1c-.3 1.8.2 2.6 2 3.1s2.7 1.5 2.9 3.4c.1.8-.2 1.2-1 1.2h-8.1a1.65 1.65 0 01-1.3-.8 8.56 8.56 0 01-1.9-5.5c-.05-3.46.25-6.9.9-10.3a6.3 6.3 0 013.4-4.8c5.9-2.8 9-8.1 11.8-13.6.6-1.1.1-1.3-.9-1.2-2.8.39-5.45 1.5-7.7 3.2a70.61 70.61 0 00-8.3 7.1 16.67 16.67 0 01-10.3 4.9C3.1 52.5-.3 48.4 0 41.8c.07-2.25.92-4.4 2.4-6.1a4.25 4.25 0 014.5-1.5c1.5.4 1.9 1.2 1.3 2.7-.3.6-.7 1.1-1 1.7a7.5 7.5 0 00-1 2c-1.1 3 .4 5.1 3.5 5.4 3.3.3 6-1.1 8.5-3.1 3.01-2.41 5.7-5.2 8-8.3a20.8 20.8 0 0114.4-8.1c2.3-.3 4.3-1.3 6.5-1.9a41.51 41.51 0 0112.7-1.8 13 13 0 005.8-1.1c4.9-2 10-2 15.1-1 4 .8 8 1.8 11.9 2.8 2.32.43 4.7.36 7-.2a67.8 67.8 0 0113.4-2c2.96-.14 5.92.44 8.6 1.7 2 .9 2 .9 1.5 2.8z"/></svg><svg viewBox="0 0 100 106" id="cat-slim" xmlns="http://www.w3.org/2000/svg"><circle cx="50" cy="56" r="50" fill="#68B738"/><path d="M69.84 0h-.38A3.5 3.5 0 0068 1.59c-.56 1.08-1 2.23-1.29 3.41a1.63 1.63 0 01-1.48 1.34A7.34 7.34 0 0060 10.12a27.31 27.31 0 00-1.85 4c-1.42 3.68-2.51 7.48-3.85 11.19C53.67 27 53.64 27 51.74 27c-2.27 0-2.11-.35-2.14 2.15 0 .79.24 1.19 1.08 1.15.26 0 .65-.13.75.21.1.34-.24.49-.44.69a9 9 0 01-4.33 2.44c-1.9.51-3.84.91-5.69 1.53-4.75 1.59-9.14 3.81-12.56 7.57a28 28 0 00-4.74 7.84c-3.67 8.64-5.45 17.74-6.83 26.93-.65 4.31-1.11 8.64-1.46 13C15.2 92.65 15 94.82 15 97h33.33a2.1 2.1 0 00-.23-1.28 5 5 0 00-3.83-3.07c-.7-.16-.78-.37-.35-.92.7-.94 1.24-1.98 1.59-3.1 1.63-4.81 2.26-9.83 3.05-14.8A30 30 0 0152 63a21.6 21.6 0 015.59-6.37c.83-.63.86-.63 1 .44.1.71.12 1.44.17 2.16.3 4.72.24 9.46-.18 14.18a61.67 61.67 0 00-.15 11c.4 4.25 1.16 8.47 2.27 12.59H74a5.41 5.41 0 00-4.24-4.44 9 9 0 00-3.76.2c-.6.14-.85 0-.9-.65a56.35 56.35 0 011-15.82c1.33-6 2.36-12.07 3.06-18.18a17.75 17.75 0 012.28-7c1.19-2.12 2.23-4.32 3.4-6.45a5.87 5.87 0 00.42-5.19c-.27-.71-.53-1.43-.86-2.11-1-1.95-2-3.88-2.92-5.85-.49-1-.38-1.12.71-1.15 1.63 0 1.63 0 1.66-1.64v-.66c0-.69-.26-1.07-1-1h-1.52c-.69 0-.89-.29-.72-1a6.24 6.24 0 015.13-4.43 22 22 0 016.62.43 1 1 0 001.25-.64c.4-1 .84-2 1.29-3a1 1 0 00-.1-1.14C81.6 13.22 78.13 9.43 73.4 7a1.49 1.49 0 01-.88-1.12 19.6 19.6 0 00-1.27-4.16A3.5 3.5 0 0069.84 0z"/></svg><svg viewBox="0 0 40 40" id="eat" xmlns="http://www.w3.org/2000/svg"><path d="M10.5 6a1 1 0 10-2 0v5.5c0 .94.3 2.18 1.17 3.2A5.11 5.11 0 0013 16.45V34a1 1 0 102 0V16.44c1.5-.2 2.59-.86 3.33-1.73a5.07 5.07 0 001.17-3.21V6a1 1 0 10-2 0v5.5c0 .56-.2 1.32-.7 1.92-.36.42-.92.82-1.8.99V6a1 1 0 10-2 0v8.41a3.02 3.02 0 01-1.8-1 3.1 3.1 0 01-.7-1.91V6zm17.2-.7A1 1 0 0026 6v28a1 1 0 102 0v-9h3.5a1 1 0 001-1c0-5.5-.76-9.72-1.73-12.79-.97-3.04-2.15-5-3.06-5.92zM30.5 23H28V9.52c.29.65.58 1.41.86 2.3A39.61 39.61 0 0130.49 23z" fill="#fff"/></svg><svg viewBox="0 0 19 14" id="email" xmlns="http://www.w3.org/2000/svg"><path stroke="#222" stroke-width="1.3" d="M1.18 6v8m17-8v8M.53 13.35h18m-18-12h18m-.65 1.83l-8.35 6.5-8.35-6.5V1.65h16.7v1.53z" fill="none"/></svg><svg viewBox="0 0 78 80" id="gift" xmlns="http://www.w3.org/2000/svg"><path d="M50.44 6.64c-1.28 0-2.54.33-3.7.95-3.66 1.97-6.26 6.16-7.72 9.09-1.45-2.93-4.06-7.12-7.72-9.1a7.9 7.9 0 00-10.66 3.16 7.79 7.79 0 00.46 8.18h-7.07a3.17 3.17 0 00-3.18 3.16v9.47a3.17 3.17 0 003.18 3.16h.85v26.35A6.11 6.11 0 0021 67.15h36.04a6.11 6.11 0 006.13-6.09V34.71h.85a3.17 3.17 0 003.18-3.16v-9.47a3.17 3.17 0 00-3.18-3.16h-7.06a7.83 7.83 0 00-6.52-12.28zm.01 2.42a5.5 5.5 0 014.81 2.83 5.33 5.33 0 01-1.71 7.03H40.66c1.15-2.55 3.67-7.28 7.24-9.2a5.5 5.5 0 012.55-.66zm-22.9 0c.88 0 1.77.21 2.6.66 3.57 1.92 6.08 6.65 7.23 9.2H24.5a5.39 5.39 0 013.05-9.85zm-13.52 12.3h49.99c.4 0 .74.33.74.73v9.47c0 .41-.33.74-.74.74H14.03a.74.74 0 01-.74-.74v-9.47c0-.4.34-.73.74-.73zm3.28 13.36h20.5v13.8H17.3v-13.8zm22.93 0h20.49v13.8H40.24v-13.8zM17.31 50.93h20.5v13.8H21a3.68 3.68 0 01-3.69-3.67V50.93zm22.93 0h20.49v10.13a3.68 3.68 0 01-3.69 3.67h-16.8v-13.8z" fill="#fff"/></svg><svg viewBox="0 0 40 40" id="glass" xmlns="http://www.w3.org/2000/svg"><path d="M25.78 22.47c-1.71 0-3.1 1.48-3.1 3.3 0 1.83 1.4 3.3 3.1 3.3 1.7 0 3.08-1.47 3.08-3.3 0-1.82-1.38-3.3-3.08-3.3zm0 5.02c-.89 0-1.6-.77-1.6-1.71 0-.95.71-1.72 1.6-1.72.88 0 1.6.77 1.6 1.72 0 .94-.72 1.7-1.6 1.7zM16.6 3.99c-1.75 0-3.18 1.52-3.18 3.4 0 1.89 1.43 3.41 3.19 3.41s3.18-1.52 3.18-3.4c0-1.89-1.42-3.41-3.18-3.41zm0 5.48c-1.06 0-1.93-.93-1.93-2.07 0-1.15.87-2.07 1.94-2.07 1.07 0 1.93.92 1.93 2.07 0 1.14-.86 2.07-1.93 2.07zM13.24 21.6c-1.3 0-2.34 1.12-2.34 2.5 0 1.39 1.04 2.5 2.34 2.5 1.3 0 2.34-1.11 2.34-2.5 0-1.38-1.05-2.5-2.34-2.5zm10.27-7.85s3.04-.84 6.18 1.5c.9.76 1.76 1.33 1.15 2.12-.34.34-.64.66-1.72-.53a6.92 6.92 0 00-5.61-1.44c-1.13.24-1.96.55-3.56 2.15a8.27 8.27 0 01-6.5 2.5c-2.52-.24-3.84-1.27-5.24-2.55-.3-.42-.3-.87-.12-1.13.17-.26.83-.52 1.2-.13.37.4 2.1 1.97 3.82 2.07 1.72.1 3.44.21 5.74-1.96 2.3-2.18 3.46-2.34 4.66-2.6zm10.15 17.06V12.16c0-.58-.38-.65-.53-.66h-.5c-.5 0-.54.56-.54.74v18.6a2.68 2.68 0 01-.82 1.89c-.81.7-1.62.6-1.62.6s-20.18 0-20.66-.03a2.3 2.3 0 01-1.6-1c-.57-.8-.46-1.85-.46-1.85V12.3c0-.83-.67-.8-.67-.8h-.3c-.54 0-.6.58-.6.77v18.54c0 1.33.46 2.4 1.55 3.33 1.1.94 2.38.86 2.38.86h20.58c.86 0 1.98-.42 2.91-1.56.93-1.14.88-2.63.88-2.63zm-2.4 1.9c-.55.48-1.1.6-1.4.61h-.21s-17.81 0-20.36-.02h-.3a2.33 2.33 0 01-1-.4 2.54 2.54 0 01-.96-1.42v-.02a3.22 3.22 0 01-.1-.65V12.3a1.42 1.42 0 000-.03c-.02-.8-.67-.78-.67-.78h-.3c-.54 0-.6.6-.6.78v18.54c0 .23.02.45.05.66a3.88 3.88 0 00.66 1.75c.22.32.5.63.84.92A3.61 3.61 0 008.9 35c.24.03.39.02.39.02h20.57a3.68 3.68 0 002.51-1.12 4.08 4.08 0 001.27-2.99V12.16c0-.58-.37-.65-.52-.66h-.5c-.44 0-.52.43-.54.66v18.72a2.6 2.6 0 01-.55 1.55l-.27.3zm1.87-1.88l.53-.02c-.18 0-.36 0-.53.02z" fill="#fff"/></svg><svg viewBox="0 0 40 40" id="leaf" xmlns="http://www.w3.org/2000/svg"><path d="M32.84 6.77a.95.95 0 00-.9-.77h-.01c-4.94.03-16.95.92-21.8 8.38-2.51 3.88-2.73 8.91-.64 14.96l.07.13a25.93 25.93 0 00-1.04 3.32 1 1 0 00.72 1.19l.2.02c.43 0 .81-.32.9-.79.03-.1 2.42-10.37 10.86-16.38.43-.3.55-.92.26-1.38a.9.9 0 00-1.3-.28c-4.79 3.4-7.74 8-9.47 11.65-1.24-4.57-.92-8.37.99-11.3 3.74-5.76 12.62-7.15 17.98-7.45-1.16 1.8-2.41 5.1-2.41 10.93 0 3.12-.83 5.52-2.47 7.14-2.62 2.6-6.88 2.83-10 2.58-.51-.04-.96.38-1 .93-.04.55.35 1.03.86 1.07.63.05 1.3.08 1.98.08 3.18 0 6.87-.66 9.43-3.2 2.04-2 3.07-4.9 3.07-8.6 0-9.1 3.22-11.1 3.23-11.1.4-.21.6-.68.5-1.13z" fill="#fff"/></svg><svg viewBox="0 0 20 20" id="phone" xmlns="http://www.w3.org/2000/svg"><g clip-path="url(#la)"><path d="M17.9 9.4H9.4v1.2h8.5l-2.1 2.1.9.9 3.1-3.1a.75.75 0 000-.9l-3.1-3.1-.9.9 2.1 2zm-9.8 10v-6.2a.65.65 0 00-.6-.6H3.1a1.22 1.22 0 001.2 1.2h2.5v5H3.1a1.79 1.79 0 01-1.9-1.7v-14a1.77 1.77 0 011.7-1.8h3.9v5H4.4a1.22 1.22 0 00-1.2 1.2h4.4a.65.65 0 00.6-.6V.6a.86.86 0 00-.7-.6H3.1A3 3 0 000 2.9v13.9a2.89 2.89 0 002.9 3.1h4.6a.5.5 0 00.6-.5z"/></g><defs><clipPath id="la"><path fill="#fff" d="M0 0h20v20H0z"/></clipPath></defs></svg><svg viewBox="0 0 60 60" id="plus" xmlns="http://www.w3.org/2000/svg"><path stroke="#D3D3D3" stroke-width="2" vector-effect="non-scaling-stroke" d="M31 0v60m29-29H0"/></svg><svg viewBox="0 0 2000 2000" id="sprite" xmlns="http://www.w3.org/2000/svg"/><svg viewBox="0 0 28 22" id="tg" xmlns="http://www.w3.org/2000/svg"><path d="M23.46 3.15c.18.15.27.38.23.61l-2.63 15.76a.66.66 0 01-1.01.44l-7.88-5.25a.66.66 0 01-.15-.96l2.61-3.26-4.36 2.9a.66.66 0 01-.65.05L4.36 10.8a.66.66 0 01.08-1.2l18.38-6.57a.66.66 0 01.64.11zM6.33 10.32l3.53 1.77 7.56-5.04a.66.66 0 01.88.96l-4.8 6 6.43 4.3 2.28-13.66-15.88 5.67z"/></svg><svg viewBox="0 0 30 30" id="tick" xmlns="http://www.w3.org/2000/svg"><path d="M13 19.72l-5.7-6.45-1.05 1.19L13 22.09 24.25 9.37 23.2 8.09 13 19.72z" fill="#68B738"/></svg><svg viewBox="0 0 28 22" id="vk" xmlns="http://www.w3.org/2000/svg"><path d="M1 5.34c0-.86.52-1.32 1.55-1.38l3.97.02c.26 0 .44.13.53.38.4 1.26.86 2.34 1.37 3.25.5.92 1.17 1.97 1.99 3.16.07.15.18.23.34.23.13 0 .22-.06.3-.18l.07-.28.03-4.35c0-.3-.07-.5-.23-.6-.15-.1-.43-.18-.83-.23-.32-.05-.48-.23-.48-.55 0-.07 0-.12.02-.15.38-1.09 1.44-1.63 3.2-1.63l1.5-.03c.67 0 1.23.16 1.67.48.44.32.67.82.67 1.5v5.72c.12.08.24.12.34.12.27 0 .5-.15.7-.45 1.95-2.58 3-4.31 3.17-5.18a.3.3 0 01.05-.13c.12-.25.33-.47.61-.65.29-.19.53-.31.75-.38a.55.55 0 01.24-.05h4.13l.26.03c.36 0 .63.16.83.47.07.1.12.21.15.33a2.4 2.4 0 01.06.55v.18a6.11 6.11 0 01-.94 2.2 23.4 23.4 0 01-1.93 2.53c-.79.9-1.27 1.5-1.47 1.78a.93.93 0 00-.24.56c0 .13.07.28.21.45l3.9 4.63c.2.26.31.56.31.88 0 .38-.16.7-.48.95-.32.25-.7.4-1.14.43l-.46.02h-4.04c-.02 0-.06 0-.11.02a.86.86 0 01-.1.01c-.4 0-.76-.16-1.1-.48-.12-.13-.96-1.12-2.5-2.97a1.39 1.39 0 00-.38-.32 38.47 38.47 0 00-.53 2.24l-.08.42a1.4 1.4 0 01-1.12 1.06l-.37.02h-2.61c-1.48 0-2.95-.63-4.41-1.9a19.3 19.3 0 01-3.96-4.95 47.51 47.51 0 01-3.28-7.05A1.92 1.92 0 011 5.34zm16.01 6.51c-.37 0-.7-.1-1.01-.29a.9.9 0 01-.45-.79V5c0-.34-.1-.58-.27-.72-.18-.14-.49-.21-.93-.21l-1.52.05c-.76 0-1.34.12-1.73.37.78.36 1.17.93 1.17 1.71v4.43a1.5 1.5 0 01-.53 1.04 1.6 1.6 0 01-1.07.42c-.53 0-.94-.24-1.22-.73a26.16 26.16 0 01-3.1-5.63l-.23-.66-3.55-.02c-.23 0-.36.01-.38.03-.03.03-.04.1-.04.22 0 .15.01.3.05.48l.56 1.4c1.49 3.64 3.11 6.51 4.86 8.6 1.75 2.1 3.47 3.15 5.16 3.15h2.66c.1 0 .19-.03.24-.09.05-.06.1-.17.13-.34l.06-.25.5-2.21c.15-.3.27-.5.38-.6.2-.2.42-.28.69-.28.43 0 .86.24 1.3.73l2.27 2.71c.14.22.3.33.45.33h4.4c.53 0 .8-.13.8-.38a.47.47 0 00-.08-.25l-3.87-4.55c-.3-.35-.45-.73-.45-1.13 0-.4.14-.8.43-1.16.23-.34.68-.9 1.34-1.67.67-.78 1.25-1.51 1.75-2.19.5-.68.82-1.3.98-1.85l.08-.33a.37.37 0 01-.02-.16.54.54 0 00-.03-.19h-4.18c-.27.1-.48.25-.64.45L21.8 6c-.45 1.16-1.6 2.94-3.5 5.36-.36.33-.8.5-1.3.5z"/></svg><svg viewBox="0 0 28 22" id="yt" xmlns="http://www.w3.org/2000/svg"><path d="M17.85 10.8l-5.24-3.5a.65.65 0 00-1.01.55v6.98a.65.65 0 001.01.54l5.24-3.49a.65.65 0 000-1.09zm-4.94 2.8V9.08l3.4 2.27-3.4 2.27zm12.48-8.56a2.4 2.4 0 00-1.45-1.63C20.22 1.98 14.25 2 14 2s-6.22-.02-9.94 1.4a2.4 2.4 0 00-1.45 1.64 25.32 25.32 0 00-.61 6.3c0 3.26.33 5.22.61 6.3a2.4 2.4 0 001.45 1.63c3.72 1.43 9.69 1.4 9.94 1.4h.08c.75 0 6.31-.04 9.86-1.4a2.4 2.4 0 001.45-1.64c.28-1.07.61-3.03.61-6.3 0-3.25-.33-5.22-.61-6.29zm-1.27 12.27a1.1 1.1 0 01-.65.74c-3.5 1.34-9.4 1.32-9.47 1.32-.07 0-5.98.02-9.47-1.32a1.09 1.09 0 01-.65-.74c-.27-1-.57-2.85-.57-5.97 0-3.12.3-4.97.57-5.97a1.1 1.1 0 01.65-.74C8.03 3.29 13.93 3.3 14 3.3c.07 0 5.98-.02 9.47 1.32a1.1 1.1 0 01.65.74c.27 1 .57 2.85.57 5.97 0 3.12-.3 4.96-.57 5.97z"/></svg></svg>