<?xml version="1.0" encoding="utf-8"?><svg xmlns="http://www.w3.org/2000/svg">
<style>:root>svg{display:none}:root>svg:target{display:block}</style>

  <svg id="mobile" viewBox="0 0 34 38" fill="none" xmlns="http://www.w3.org/2000/svg"><path d="M6.07 20.72v-2.26c6.68-.92 13.42-1.36 20.17-1.33 0 .6 0 1.21-.06 1.82a25.52 25.52 0 0 1 6-1.82A16.67 16.67 0 0 0 .19 20.39l5.88.33ZM27.24 24.23c-1.16 1.28-1.39 1.2-1.39 3.45v9.18A16.64 16.64 0 0 0 33.32 23a17.3 17.3 0 0 0-.32-3.1c-2.07 1.23-4 2.68-5.76 4.33ZM6.36 25.72s-3.79-1.44-5.19-1.83A8.54 8.54 0 0 0 0 23.61a16.65 16.65 0 0 0 8.68 14L6.36 25.72Z" fill="#FDC305"/><path d="M26.29 17.12A89.8 89.8 0 0 0 24.89.65S24.75-.64 24 .41c-.59 1.25-1 2.58-1.2 3.94a70.34 70.34 0 0 0-12.77.34C9.24 2 7.85.75 7.18 1c-.67.25-.72 3.31-.72 3.31l-.33 14.1c6.68-.9 13.42-1.34 20.16-1.29Z" fill="#F06351"/><path d="M12.41 14c0-.09 1 .68 1.41.92.41.24.61.42.61.59 0 .17-.27.34-.63.34s-.91-.12-1-.27h1.23A8.34 8.34 0 0 1 12.41 14ZM19.89 14.11l-1.09 1.33c0 .06-.17.35.18.3.41-.06.82-.16 1.22-.29.11 0 .07-.19-.11-.17-.18.02-.69.05-1 .11l.84-1.26s.07-.13-.04-.02ZM16.75 20.2c.46-.2.85-.56 1.09-1 .28-.65 0-.91-.44-1-.6-.11-1.22.01-1.74.34-.39.36-.34.72-.05 1 .35.27.73.49 1.14.66Z" fill="#000"/><path d="M16.35 21.45c-.11.23-.27.43-.46.6-.28.23-.63.36-1 .38a2.15 2.15 0 0 1-1.47-.43 2.3 2.3 0 0 1-.53-.44c-.1-.11-.22-.2-.36-.26 0 0 .75 4.1 2.57 4.75 1.82.65 2.14-.75 2.2-1.13a5.61 5.61 0 0 0-.82-3.23c-.02-.31-.03-.11-.13-.24Z" fill="#F06351"/><path d="M14.71 22.59a3.44 3.44 0 0 1-2.36-1.47.14.14 0 0 1 .03-.15.14.14 0 0 1 .2 0c.5.7 1.26 1.16 2.11 1.3a2.1 2.1 0 0 0 1.63-1l.14-.19.1.21s.37.76 1 .8c.63.04 1.05-.41 1.61-1.28a.14.14 0 0 1 .2 0 .15.15 0 0 1 .05.2c-.64 1-1.27 1.44-1.88 1.4a1.55 1.55 0 0 1-1.12-.76 2.26 2.26 0 0 1-1.71.94Z" fill="#000"/><path d="M26.24 18.92a58.63 58.63 0 0 0-5.07 5.19A31.63 31.63 0 0 1 15.88 29c-.22-.53-1.62-1.51-1.62-1.51s-3.13-2.14-5.18-3.82a34.14 34.14 0 0 1-3.13-3l-2-.11c2.89 4.2 7.12 7.3 12 8.8.86-.14 3.27-1.86 5.07-3.26a58.13 58.13 0 0 0 5.94-5.89c.5-.59.89-1.27 1.14-2-1.1.39-1.86.71-1.86.71Z" fill="#F06351"/></svg>

  <svg id="text" viewBox="0 0 109 27" fill="none" xmlns="http://www.w3.org/2000/svg"><path d="M5.26 17.35A6.86 6.86 0 0 1 4 13.05V6.65c-.1-1.54.3-3.08 1.19-4.38.86-1 2.2-1.46 4.18-1.46 1.98 0 3.24.46 4.03 1.3A5.41 5.41 0 0 1 14.6 5.9v1.54h-3.87V5.66a3.69 3.69 0 0 0-.24-1.53c-.1-.2-.26-.37-.46-.48-.2-.1-.42-.16-.65-.14-.55 0-.94.15-1.1.54a4.84 4.84 0 0 0-.24 1.69v8.22a3.1 3.1 0 0 0 .32 1.62c.15.38.55.54 1.1.54.56 0 .87-.16 1.03-.54.18-.52.26-1.07.24-1.62v-1.84h3.87v1.54a5.77 5.77 0 0 1-1.19 3.84c-.79.92-2.13 1.38-4.03 1.38-1.9-.07-3.32-.53-4.1-1.53ZM19.25 1.05h4.5l3.33 17.53h-3.64l-.63-3.7h-2.6l-.64 3.7h-3.72l3.4-17.53Zm3.24 11.53-.95-6.84-.94 6.84h1.9ZM29.84 3.97h-2.68V1.05h9.4V3.9h-2.69v14.68h-4.03V3.98ZM43.75 1.05h6.96V2.9h-4.5v5.76h3.63v1.77H46.2v6.46h4.5v1.76h-7.03V1.05h.08ZM52.76 1.05h1.74l5.14 11.6V1.06h2.05v17.53h-1.58l-5.21-12v12h-2.14V1.05ZM64.06 1.05h6.96V2.9h-4.5v5.76h3.63v1.77H66.5v6.46h4.5v1.76h-6.95V1.05ZM73.07 1.05h3.64c1.43-.1 2.85.29 4.03 1.08.87.7 1.26 1.92 1.26 3.53 0 2.23-.7 3.62-2.21 4.08l2.53 8.76h-2.45l-2.37-8.22h-1.98v8.22H73V1.05h.08Zm3.48 7.54c.81.06 1.63-.16 2.3-.62.47-.38.7-1.15.7-2.3a4.84 4.84 0 0 0-.23-1.7c-.18-.39-.49-.71-.87-.92a3.7 3.7 0 0 0-1.74-.3h-1.1V8.5h.94v.08ZM85.16 17.27a7.6 7.6 0 0 1-1.1-4.46V6.97c-.02-1.11.11-2.22.4-3.3.26-.81.78-1.51 1.5-2 .88-.51 1.9-.75 2.92-.7 1.66 0 2.84.39 3.55 1.24a5.76 5.76 0 0 1 1.11 3.84v.61h-2.37v-.53c0-.65-.05-1.3-.16-1.93-.06-.4-.3-.76-.63-1a2.5 2.5 0 0 0-1.5-.38 2.42 2.42 0 0 0-1.58.46 1.74 1.74 0 0 0-.63 1.23c-.1.69-.16 1.38-.16 2.08v6.53c-.06 1 .1 2 .47 2.92.32.62.95.85 1.9.85.37.04.75-.02 1.09-.19.34-.16.62-.42.8-.74.42-.97.61-2.02.56-3.07v-1.23h-2.3V9.89h4.59v8.69h-1.58l-.24-2c-.2.67-.64 1.25-1.22 1.66-.6.4-1.3.6-2.02.57a4.05 4.05 0 0 1-3.4-1.54ZM98.68 12.43 94.8 1.13h2.37l2.76 8.46 2.69-8.46H105l-3.87 11.3v6.15h-2.37v-6.15h-.08Z" fill="#111"/></svg>

  <svg id="tablet" viewBox="0 0 174 52" fill="none" xmlns="http://www.w3.org/2000/svg"><path d="M51.58 20.85a22.23 22.23 0 0 0-6.93-9.09 21.96 21.96 0 0 0-21.79-2.93 22.08 22.08 0 0 0-9.05 6.94 22.35 22.35 0 0 0-3.06 21.95 22.24 22.24 0 0 0 6.81 9.18A21.97 21.97 0 0 0 28 51.44c-.5-1.82-1-3.82-1.45-5.95 1.3.85 2.67 1.6 4.1 2.21 0 0 .1 1.88.24 3.97 1.54.03 3.08-.1 4.6-.4a1.87 1.87 0 0 1 0-.66c.24-1.63.93-4.56 1.07-6.44 1-.94 1.83-2.03 2.5-3.23l-.05.39c-.48 3.7-1.47 7.65-2.07 8.75-.2.36-.44.7-.72 1a22 22 0 0 0 14.61-11.53 22.43 22.43 0 0 0 .75-18.7Zm-1.26 3.3c-.38.37-1.17.62-1.3-.5-.13-1.14-.16-1.93-.16-1.93s-1.66-2.98-2.28-3.01c-.62-.04-5.03 3.01-6.19 4.34-1 1.12-1.2 1.05-1.2 3.02 0 1.48.19 7.1.08 11.39l-7.02 1.88c-2.2.64-4.45 1.14-6.72 1.5l-.86-5.07h-.12l-2.21-11.44s-3.29-1.25-4.5-1.59a3.21 3.21 0 0 0-3.44.55 4.4 4.4 0 0 0-1.49 3.34c.18.4.32.83.42 1.26.04.42-1.04.38-1.73.38s-.79-1.26-.25-2.72c.43-1.13.95-2.22 1.57-3.25.47-.93 1.07-1.77 1.78-2.51 0 0 .12-.3 1.08-.21.96.08 6.27.37 6.27.37l.05-1.97c5.77-.8 11.6-1.2 17.43-1.17v1.6c2.2-1.02 4.59-1.61 7.01-1.74a.78.78 0 0 1 .67.33c.29.38 2.07 2.61 2.28 2.93.58.84 1.1 1.7 1.57 2.61a5.44 5.44 0 0 1-.74 1.6Z" fill="#FDC305"/><path d="m48.64 18.83.86 1.12c.58.84 1.1 1.7 1.57 2.6a5.44 5.44 0 0 1-.74 1.55c-.38.38-1.16.63-1.29-.5-.13-1.13-.18-1.88-.18-1.88s-1.66-2.98-2.28-3.01c-.62-.04-5.02 3.01-6.19 4.34-1 1.12-1.2 1.05-1.2 3.02 0 1.3.14 5.78.1 9.76 1.57.17 3.86.6 4.55 1.63 0 0-.25-6.24 6.73-2.97 0 0 .24-8.5 9.87-6.33a37.71 37.71 0 0 0-11.8-9.33ZM39.57 16.81C39.6 12 39.2 7.2 38.36 2.45c0 0-.13-1.13-.75-.2-.51 1.1-.86 2.26-1.03 3.47a60.54 60.54 0 0 0-11.05.3c-.7-2.4-1.91-3.48-2.49-3.2-.57.3-.64 2.85-.64 2.85l-.29 12.3c5.79-.8 11.62-1.19 17.46-1.16Z" fill="#F06351"/><path d="M39.07 40.94c.1-.93.17-2.16.2-3.52l-7.02 1.88c-2.2.65-4.45 1.17-6.72 1.54l.96 4.34c0 .1 0 .2.06.29 1.3.85 2.67 1.6 4.1 2.22 2.08-1 4.07-2.21 5.93-3.6v.06a13.2 13.2 0 0 0 2.49-3.2Z" fill="#E55645"/><path d="M27.57 14.1c-.05-.1.86.58 1.21.8.35.2.53.36.53.5 0 .15-.23.3-.54.3-.3 0-.8-.1-.86-.22-.07-.13.52 0 .81 0h.25c-.53-.4-1-.86-1.4-1.39ZM34.03 14.19s-.87 1.11-.94 1.16c-.08.06-.15.3.16.26.36-.06.7-.14 1.05-.25.1-.05.06-.17-.1-.15-.17.01-.59.04-.86.1l.73-1.11s.03-.1-.04-.01ZM31.32 19.5c.4-.18.73-.48.94-.87.24-.57 0-.8-.38-.87a2.1 2.1 0 0 0-1.5.3c-.34.32-.3.63 0 .87.28.23.6.42.94.57Z" fill="#000"/><path d="M31.01 20.6a1.48 1.48 0 0 1-1.26.85c-.47.04-.94-.1-1.32-.39-.18-.1-.33-.23-.46-.39a.86.86 0 0 0-.3-.22c-.01 0 .64 3.58 2.2 4.15 1.57.57 1.86-.66 1.9-1 .06-.98-.19-1.96-.7-2.8 0-.27-.02-.1-.06-.2Z" fill="#F06351"/><path d="M29.55 21.58a3 3 0 0 1-2.03-1.24.13.13 0 0 1 0-.17.12.12 0 0 1 .09-.04.12.12 0 0 1 .08.04 2.78 2.78 0 0 0 1.82 1.14 1.8 1.8 0 0 0 1.42-.87l.12-.17.08.2s.33.65.86.69c.54.03.92-.37 1.4-1.12a.12.12 0 0 1 .17-.03.13.13 0 0 1 .04.17c-.57.85-1.11 1.26-1.62 1.22a1.33 1.33 0 0 1-.97-.63 1.95 1.95 0 0 1-1.46.81Z" fill="#000"/><path d="M31.24 33.28a3.24 3.24 0 0 0 3.23-3.26c0-1.8-1.45-3.26-3.23-3.26A3.24 3.24 0 0 0 28 30.02c0 1.8 1.44 3.26 3.23 3.26Z" fill="#FDC305"/><path d="m35.52 27.37-2.7 1.14 1-4.9-6.47 8.49 2.7-1.14-1 4.9 6.47-8.49Zm-6.37 3.33 3.58-4.7-.7 3.47 1.73-.7-3.61 4.7.7-3.47-1.7.7ZM27.94 29.42c.54 0 .97-.43.97-.97a.97.97 0 0 0-.97-.97.97.97 0 0 0-.96.97c0 .54.43.97.96.97ZM33.56 32.95c.38 0 .68-.3.68-.69 0-.38-.3-.68-.68-.68a.68.68 0 0 0 0 1.37ZM34.39 31.06a.3.3 0 0 0 .3-.3.3.3 0 0 0-.3-.3.3.3 0 0 0-.3.3c0 .17.13.3.3.3Z" fill="#111"/><path d="M39.52 18.39a49.73 49.73 0 0 0-4.38 4.52 27.56 27.56 0 0 1-4.58 4.26c-.19-.46-1.4-1.32-1.4-1.32s-2.7-1.87-4.48-3.34c-.96-.8-1.86-1.67-2.7-2.6l-1.73-.1A19.5 19.5 0 0 0 30.6 27.5c.74-.12 2.82-1.62 4.38-2.85a49.89 49.89 0 0 0 5.17-5.13c.43-.52.76-1.1.98-1.74-.98.33-1.6.62-1.6.62ZM22.34 24.33s-3.29-1.25-4.5-1.59a3.21 3.21 0 0 0-3.44.55 4.4 4.4 0 0 0-1.49 3.34c.18.4.32.83.42 1.26.04.42-1.04.38-1.73.38s-.79-1.26-.25-2.72a19.9 19.9 0 0 1 1.57-3.25C8.22 24.76 0 30.46 0 30.46c2.35-.14 4.71-.07 7.06.21 4.52.46 4.3 4.06 4.3 4.06 1.6-.44 3.21-.76 4.85-.96 1.83-.13 1.96 1.84 1.96 1.84l.45 3.35a15.8 15.8 0 0 1 2.29-2.05 5.19 5.19 0 0 1 3.77-1.13l-2.34-11.45Z" fill="#F06351"/><path d="M73.79 36.5a7.25 7.25 0 0 1-1.2-4.52v-6.51c-.12-1.61.3-3.21 1.18-4.56.8-1.03 2.16-1.55 4.1-1.54 1.92 0 3.23.46 3.91 1.36a5.88 5.88 0 0 1 1.15 3.9v1.53h-3.57V24.5c0-.43-.04-.87-.1-1.3-.05-.31-.2-.6-.41-.83a1.34 1.34 0 0 0-1-.32 1.25 1.25 0 0 0-1.29.65 4.8 4.8 0 0 0-.29 1.92v8.27c-.04.65.08 1.3.34 1.91a1.28 1.28 0 0 0 1.25.63 1.15 1.15 0 0 0 1.2-.64c.21-.61.3-1.26.27-1.9v-1.74h3.56v1.5a6.34 6.34 0 0 1-1.05 4.01c-.76.96-2.07 1.42-3.93 1.42-1.86 0-3.32-.52-4.12-1.59ZM87.79 19.62h4.08l3.45 18.25h-3.4l-.6-4.03h-2.87l-.69 4h-3.44l3.47-18.22Zm3.14 11.92-1.08-7.33-1.08 7.33h2.16ZM97.96 22.37h-2.79v-2.75h9.23v2.75h-2.75v15.47h-3.7l.01-15.47Z" fill="#111"/><path d="M111.65 19.62h7v1.9h-4.48v6.02h3.64v1.8h-3.64v6.68h4.53v1.82h-7.05V19.62ZM120.73 19.62h1.72l5.17 12.1v-12.1h2.1v18.25h-1.6l-5.18-12.45v12.42h-2.13l-.08-18.22ZM132.5 19.62h7v1.9h-4.48v6.02h3.67v1.8h-3.63v6.68h4.5v1.82h-7.06V19.62ZM141.58 19.62h3.63a6 6 0 0 1 4.02 1.14c.87.75 1.29 1.99 1.29 3.7 0 2.32-.75 3.73-2.23 4.25l2.58 9.13h-2.45l-2.36-8.55h-1.96v8.55h-2.52V19.62Zm3.44 7.82c.83.08 1.66-.15 2.33-.66a3.12 3.12 0 0 0 .7-2.35 5.12 5.12 0 0 0-.25-1.74 1.64 1.64 0 0 0-.86-.94 4.07 4.07 0 0 0-1.76-.3h-1.12v6.03l.96-.04ZM153.91 36.5a8.1 8.1 0 0 1-1.1-4.65v-6.09c-.02-1.17.12-2.34.44-3.47a3.9 3.9 0 0 1 1.5-2.1 5.06 5.06 0 0 1 2.9-.73 4.5 4.5 0 0 1 3.6 1.29 6.12 6.12 0 0 1 1.1 4.02v.68h-2.37v-.56c.01-.68-.04-1.36-.16-2.02-.08-.43-.31-.8-.65-1.07a2.57 2.57 0 0 0-1.49-.36 2.16 2.16 0 0 0-1.56.5c-.35.33-.59.79-.66 1.28-.1.71-.16 1.44-.15 2.16v6.77c-.06 1.03.11 2.06.51 3a2.43 2.43 0 0 0 3.85-.07c.42-1 .6-2.09.53-3.17v-1.29h-2.3v-1.8h4.57v9.02h-1.56l-.25-2.1a3.21 3.21 0 0 1-3.2 2.33 3.98 3.98 0 0 1-3.55-1.58ZM167.71 31.41l-3.9-11.79h2.34l2.77 8.8 2.72-8.8H174l-3.88 11.8v6.42h-2.41v-6.43Z" fill="#444"/></svg>

  <svg id="desktop" viewBox="0 0 202 60" fill="none" xmlns="http://www.w3.org/2000/svg"><path d="M59.88 24.21a25.8 25.8 0 0 0-8.05-10.55 25.5 25.5 0 0 0-25.29-3.4 25.64 25.64 0 0 0-10.51 8.04 25.95 25.95 0 0 0-3.55 25.48 25.82 25.82 0 0 0 7.9 10.67 25.5 25.5 0 0 0 12.13 5.27c-.58-2.11-1.17-4.44-1.69-6.91 1.51.99 3.1 1.85 4.76 2.57 0 0 .12 2.18.28 4.61 1.79.03 3.58-.13 5.33-.47a2.17 2.17 0 0 1 0-.77c.3-1.89 1.1-5.29 1.25-7.48a15.33 15.33 0 0 0 2.9-3.74l-.06.45c-.55 4.3-1.7 8.88-2.4 10.15-.23.42-.5.81-.83 1.16a25.55 25.55 0 0 0 16.96-13.38 26.04 26.04 0 0 0 .87-21.7Zm-1.47 3.82c-.44.44-1.35.73-1.5-.58-.15-1.31-.19-2.23-.19-2.23s-1.93-3.46-2.65-3.5c-.72-.04-5.83 3.5-7.18 5.04-1.17 1.3-1.4 1.21-1.4 3.5 0 1.73.22 8.24.1 13.23l-8.15 2.19a63.54 63.54 0 0 1-7.8 1.73l-1-5.88h-.14l-2.57-13.29s-3.8-1.45-5.2-1.84a3.73 3.73 0 0 0-4.01.63 5.11 5.11 0 0 0-1.73 3.89c.21.47.37.96.48 1.46.05.48-1.2.43-2 .43s-.92-1.45-.29-3.15A23.1 23.1 0 0 1 15 25.88a11.97 11.97 0 0 1 2.07-2.91s.14-.34 1.25-.24c1.11.1 7.28.43 7.28.43l.05-2.29c6.7-.93 13.47-1.38 20.24-1.35v1.85a22.36 22.36 0 0 1 8.14-2.02.9.9 0 0 1 .77.4c.34.42 2.41 3.02 2.65 3.4a28.3 28.3 0 0 1 1.83 3.02 6.32 6.32 0 0 1-.87 1.85v.01Z" fill="#FDC305"/><path d="m56.46 21.86 1 1.3a28.3 28.3 0 0 1 1.83 3.03 6.32 6.32 0 0 1-.86 1.8c-.44.43-1.35.72-1.5-.6-.15-1.3-.2-2.17-.2-2.17s-1.94-3.46-2.66-3.5c-.72-.04-5.83 3.5-7.18 5.04-1.17 1.3-1.4 1.21-1.4 3.5 0 1.52.17 6.71.13 11.33 1.81.2 4.47.7 5.27 1.9 0 0-.29-7.25 7.81-3.45 0 0 .28-9.88 11.46-7.35a43.78 43.78 0 0 0-13.7-10.83ZM45.93 19.52a92.02 92.02 0 0 0-1.4-16.68s-.15-1.3-.87-.24c-.6 1.28-1 2.64-1.2 4.04a70.28 70.28 0 0 0-12.82.34c-.82-2.77-2.22-4.03-2.89-3.7-.67.33-.75 3.3-.75 3.3l-.33 14.3c6.71-.94 13.49-1.4 20.26-1.36Z" fill="#F06351"/><path d="M45.35 47.53c.13-1.08.2-2.51.24-4.1l-8.15 2.2a63.53 63.53 0 0 1-7.8 1.78l1.11 5.04c0 .12 0 .23.07.34 1.51.99 3.1 1.85 4.76 2.57a42.35 42.35 0 0 0 6.88-4.17v.06a15.33 15.33 0 0 0 2.9-3.72Z" fill="#E55645"/><path d="M32 16.36c-.05-.1 1 .69 1.41.93.41.24.61.42.61.6 0 .17-.26.34-.62.34s-.92-.12-1-.26c-.08-.15.6 0 .94 0h.3c-.62-.46-1.17-1-1.64-1.6ZM39.5 16.47s-1 1.3-1.09 1.35c-.09.07-.17.35.2.3.4-.07.81-.16 1.21-.29.11-.06.07-.2-.12-.18-.19.02-.68.05-1 .11l.85-1.28s.03-.12-.05 0ZM36.36 22.64c.47-.21.85-.56 1.1-1.01.27-.67 0-.92-.45-1.01-.6-.11-1.23.01-1.75.34-.39.37-.34.74 0 1.01s.7.5 1.1.67Z" fill="#000"/><path d="M36 23.9c-.11.24-.27.44-.46.61-.28.23-.63.37-1 .39-.55.05-1.1-.1-1.54-.45a2 2 0 0 1-.53-.45 1 1 0 0 0-.36-.25s.75 4.14 2.57 4.8c1.82.67 2.16-.76 2.21-1.14a5.72 5.72 0 0 0-.82-3.27c0-.3-.02-.1-.07-.23Z" fill="#F06351"/><path d="M34.3 25.06a3.48 3.48 0 0 1-2.35-1.45.15.15 0 0 1 0-.2.14.14 0 0 1 .2 0 3.23 3.23 0 0 0 2.11 1.32 2.1 2.1 0 0 0 1.64-1l.14-.2.1.23s.38.76 1 .8c.62.04 1.06-.42 1.63-1.3a.14.14 0 0 1 .2-.04.15.15 0 0 1 .04.2c-.67 1-1.3 1.47-1.89 1.43A1.54 1.54 0 0 1 36 24.1a2.27 2.27 0 0 1-1.7.95Z" fill="#000"/><path d="M36.26 38.63c2.07 0 3.75-1.69 3.75-3.78a3.77 3.77 0 0 0-3.75-3.78 3.77 3.77 0 0 0-3.75 3.78 3.77 3.77 0 0 0 3.75 3.78Z" fill="#FDC305"/><path d="M41.23 31.78 38.1 33.1l1.15-5.68-7.5 9.84 3.13-1.32-1.15 5.7 7.5-9.86Zm-7.39 3.86L38 30.18l-.8 4.04 2-.83-4.2 5.47.81-4.04-1.97.82ZM32.44 34.16c.62 0 1.12-.51 1.12-1.13 0-.63-.5-1.13-1.12-1.13-.62 0-1.12.5-1.12 1.13 0 .62.5 1.13 1.12 1.13ZM38.96 38.25a.8.8 0 0 0 .8-.8.8.8 0 0 0-.8-.8.8.8 0 0 0-.79.8c0 .44.36.8.8.8ZM39.92 36.06a.35.35 0 0 0 0-.7c-.2 0-.35.15-.35.35 0 .2.16.35.35.35Z" fill="#111"/><path d="M45.88 21.34c-1.8 1.65-3.5 3.4-5.09 5.26a31.99 31.99 0 0 1-5.3 4.94c-.23-.53-1.64-1.53-1.64-1.53s-3.14-2.17-5.2-3.87a32.02 32.02 0 0 1-3.14-3.03l-2-.11a22.65 22.65 0 0 0 12 8.92c.86-.14 3.28-1.89 5.1-3.31a57.9 57.9 0 0 0 6-5.96c.49-.6.88-1.28 1.13-2.02-1.14.38-1.86.71-1.86.71Z" fill="#F06351"/><path d="m65.22 3.53-8.46 9.52-1.22-2L63.7 0l1.53 3.53ZM62.65 17.41l5.54-4.14-.78-3.78-5.4 4.85.64 3.07ZM59.92 49.8l6.13 3.2 3.01-2.35-6.69-2.78-2.45 1.93ZM1.95 6.02l3.07-3.39 9.29 9.08-1.22 2.3L1.95 6.02ZM7.38 16.42l-4.7-3.16-2.4 3.9 5.15 2.43 1.95-3.17ZM13.91 53 9.36 56.4l2.8 3.61 4.02-4.06-2.27-2.93Z" fill="#FDC305"/><path d="M25.93 28.24s-3.8-1.45-5.2-1.84a3.73 3.73 0 0 0-4 .63 5.11 5.11 0 0 0-1.74 3.89c.21.47.37.96.48 1.46.05.48-1.2.43-2 .43s-.92-1.45-.29-3.15A23.1 23.1 0 0 1 15 25.88c-5.45 2.87-15 9.49-15 9.49 2.73-.17 5.47-.09 8.19.24 5.25.53 5 4.7 5 4.7 1.85-.5 3.73-.88 5.63-1.11 2.12-.14 2.27 2.14 2.27 2.14l.53 3.9c.8-.89 1.7-1.68 2.65-2.39 1.24-1 2.8-1.47 4.38-1.31l-2.72-13.3Z" fill="#F06351"/><path d="M85.66 42.37a8.42 8.42 0 0 1-1.4-5.24v-7.56a8.55 8.55 0 0 1 1.38-5.29c.93-1.2 2.51-1.8 4.75-1.8 2.24.01 3.76.54 4.55 1.59a6.82 6.82 0 0 1 1.33 4.53v1.77h-4.14v-1.92c0-.51-.04-1.02-.13-1.52a1.7 1.7 0 0 0-.47-.95 1.56 1.56 0 0 0-1.15-.38 1.45 1.45 0 0 0-1.5.76c-.26.7-.37 1.46-.34 2.22v9.6c-.04.76.1 1.52.4 2.22a1.49 1.49 0 0 0 1.44.74 1.34 1.34 0 0 0 1.4-.75c.25-.71.35-1.46.31-2.2v-2.03h4.14v1.75A7.36 7.36 0 0 1 95 42.56c-.88 1.1-2.4 1.65-4.56 1.65-2.16 0-3.85-.6-4.78-1.84ZM101.92 22.78h4.73l4 21.18h-3.94l-.7-4.68h-3.33l-.8 4.65h-4l4.04-21.15Zm3.64 13.84-1.25-8.52-1.25 8.52h2.5ZM113.72 25.96h-3.23v-3.18h10.72v3.18H118v17.97h-4.3l.02-17.96Z" fill="#111"/><path d="M129.62 22.78h8.13v2.2h-5.2v6.99h4.22v2.09h-4.22v7.75h5.25v2.12h-8.18V22.78ZM140.16 22.78h2l6 14.05V22.78h2.44v21.18h-1.87l-6-14.44v14.41h-2.48l-.1-21.15ZM153.83 22.78h8.12v2.2h-5.2v6.99H161v2.09h-4.22v7.75H162v2.12h-8.18V22.78ZM164.36 22.78h4.22a6.96 6.96 0 0 1 4.67 1.32c1 .88 1.49 2.3 1.49 4.3 0 2.69-.87 4.33-2.6 4.93l3 10.6h-2.83L169.56 34h-2.27v9.93h-2.93V22.78Zm4 9.08c.96.09 1.92-.18 2.7-.77a3.61 3.61 0 0 0 .82-2.73 5.95 5.95 0 0 0-.3-2.02 1.92 1.92 0 0 0-1-1.1 4.72 4.72 0 0 0-2.04-.34h-1.3v7l1.12-.04ZM178.68 42.37a9.4 9.4 0 0 1-1.27-5.4v-7.06c-.04-1.36.13-2.72.5-4.04.29-.98.9-1.84 1.74-2.43a5.87 5.87 0 0 1 3.36-.84 5.22 5.22 0 0 1 4.18 1.49 7.1 7.1 0 0 1 1.28 4.67v.79h-2.75v-.66a11.7 11.7 0 0 0-.18-2.34c-.1-.5-.36-.94-.76-1.24a2.98 2.98 0 0 0-1.72-.41 2.5 2.5 0 0 0-1.81.56c-.42.4-.69.92-.77 1.5-.13.82-.19 1.66-.17 2.5v7.86c-.08 1.2.12 2.4.59 3.5a2.83 2.83 0 0 0 3.5.74c.38-.2.71-.49.97-.84.48-1.16.69-2.42.6-3.68v-1.5h-2.65v-2.08h5.3v10.47h-1.81l-.3-2.43a3.72 3.72 0 0 1-3.72 2.7 4.63 4.63 0 0 1-4.11-1.83ZM194.7 36.47l-4.53-13.7h2.72l3.2 10.22 3.17-10.21H202l-4.5 13.69v7.46h-2.8l-.01-7.46Z" fill="#444"/></svg>

  <svg id="footer-logo" viewBox="0 0 128 24" fill="none" xmlns="http://www.w3.org/2000/svg"><path d="M1.6 22.05A9.5 9.5 0 0 1 0 16.31V7.79a9.63 9.63 0 0 1 1.5-5.84C2.6.62 4.3 0 6.81 0c2.5 0 4.1.62 5.1 1.74a7.49 7.49 0 0 1 1.51 5.03v2.05h-4.9V6.46c.03-.7-.07-1.4-.3-2.05a1.46 1.46 0 0 0-.59-.63 1.41 1.41 0 0 0-.82-.19c-.7 0-1.2.2-1.4.72-.23.73-.33 1.49-.3 2.25v10.98c-.05.74.08 1.48.4 2.15.2.52.7.72 1.4.72s1.1-.2 1.3-.72c.23-.7.33-1.42.3-2.15v-2.46h4.91v2.05a7.98 7.98 0 0 1-1.5 5.13c-1 1.23-2.7 1.84-5.1 1.84-2.41-.1-4.22-.72-5.22-2.05ZM19.33.3h5.7l4.22 23.4h-4.61l-.8-4.93h-3.3l-.8 4.92h-4.72L19.33.31Zm4.1 15.4-1.2-9.14-1.2 9.13h2.4ZM32.75 4.2h-3.4V.3h11.91v3.8h-3.4v19.6h-5.1V4.2ZM50.38.3h8.81v2.47h-5.7v7.7h4.6v2.35h-4.6v8.62h5.7v2.35h-8.91V.31h.1ZM61.8.3H64l6.51 15.5V.3h2.6v23.4h-2l-6.6-16v16H61.8V.3ZM76.12.3h8.81v2.47h-5.7v7.7h4.6v2.35h-4.6v8.62h5.7v2.35h-8.81V.31ZM87.54.3h4.6a7.87 7.87 0 0 1 5.11 1.44c1.1.93 1.6 2.57 1.6 4.72 0 2.98-.9 4.82-2.8 5.44l3.2 11.69h-3.1l-3-10.97h-2.5v10.97h-3.21V.31h.1Zm4.4 10.06a4.3 4.3 0 0 0 2.9-.82c.6-.51.91-1.54.91-3.08a6.77 6.77 0 0 0-.3-2.25 2.58 2.58 0 0 0-1.1-1.24 4.47 4.47 0 0 0-2.2-.4h-1.4v7.69h1.2v.1ZM102.86 21.95a10.57 10.57 0 0 1-1.4-5.95V8.2c-.03-1.48.14-2.96.5-4.4a5.2 5.2 0 0 1 1.9-2.67c1.12-.68 2.41-1 3.7-.92 2.11 0 3.61.5 4.52 1.64a7.98 7.98 0 0 1 1.4 5.12v.82h-3v-.71c0-.86-.07-1.72-.2-2.57a2.06 2.06 0 0 0-.8-1.33 3.04 3.04 0 0 0-1.91-.51 2.96 2.96 0 0 0-2 .61 2.3 2.3 0 0 0-.8 1.64c-.14.92-.2 1.85-.2 2.77v8.72a9.53 9.53 0 0 0 .6 3.9c.4.82 1.2 1.13 2.4 1.13a2.37 2.37 0 0 0 2.4-1.23c.53-1.3.77-2.7.7-4.1v-1.65h-2.9V12.1h5.8v11.6h-2l-.3-2.67c-.26.89-.8 1.67-1.55 2.2-.74.55-1.64.81-2.55.77a4.9 4.9 0 0 1-4.3-2.05ZM119.99 15.49 115.08.4h3l3.51 11.28 3.4-11.28H128l-4.9 15.08v8.2h-3.01v-8.2h-.1Z" fill="#111"/></svg>

</svg>
