<svg width="109" height="27" viewBox="0 0 109 27" fill="none" xmlns="http://www.w3.org/2000/svg">
<g clip-path="url(#clip0_15082_523)" filter="url(#filter0_d_15082_523)">
<path d="M5.26449 17.346C4.36955 16.0847 3.9253 14.5725 4.00001 13.0418V6.6623C3.89163 5.11513 4.30807 3.5761 5.18546 2.28122C6.05478 1.28203 7.39829 0.820862 9.37403 0.820862C11.3498 0.820862 12.6143 1.28203 13.4045 2.1275C14.2626 3.19835 14.6846 4.53922 14.59 5.89369V7.43091H10.7175V5.66311C10.7488 5.14026 10.6681 4.6168 10.4804 4.12589C10.3802 3.92773 10.2212 3.76328 10.024 3.65371C9.82686 3.54413 9.60049 3.49443 9.37403 3.511C8.82082 3.511 8.42568 3.66472 8.26762 4.04902C8.08883 4.59514 8.00862 5.16724 8.03053 5.73997V13.9641C7.98879 14.5198 8.0978 15.0763 8.34665 15.5782C8.5047 15.9625 8.89985 16.1162 9.45306 16.1162C10.0063 16.1162 10.3224 15.9625 10.4804 15.5782C10.6601 15.0587 10.7405 14.5117 10.7175 13.9641V12.1194H14.59V13.6567C14.6704 15.0332 14.2508 16.3935 13.4045 17.4997C12.6143 18.422 11.2707 18.8832 9.37403 18.8832C7.47732 18.8063 6.05478 18.3452 5.26449 17.346Z" fill="#111111"/>
<path d="M19.2527 1.05269H23.7574L27.0767 18.577H23.4413L22.8091 14.8877H20.2011L19.5689 18.577H15.8545L19.2527 1.05269ZM22.493 12.5818L21.5446 5.74121L20.5962 12.5818H22.493Z" fill="#111111"/>
<path d="M29.8427 3.9734H27.1557V1.05269H36.5603V3.89654H33.8732V18.577H29.8427V3.9734Z" fill="#111111"/>
<path d="M43.7519 1.05269H50.7066V2.89735H46.2019V8.66192H49.8372V10.4297H46.2019V16.8861H50.7066V18.6539H43.6729V1.05269H43.7519Z" fill="#111111"/>
<path d="M52.7613 1.05269H54.5L59.6369 12.6587V1.05269H61.6917V18.577H60.1111L54.8951 6.58668V18.577H52.7613V1.05269Z" fill="#111111"/>
<path d="M64.0626 1.05269H71.0172V2.89735H66.5125V8.66192H70.1479V10.4297H66.5125V16.8861H71.0172V18.6539H64.0626V1.05269Z" fill="#111111"/>
<path d="M73.072 1.05284H76.7074C78.1375 0.956767 79.5587 1.3362 80.7379 2.1289C81.6072 2.82064 82.0024 4.05042 82.0024 5.6645C82.0024 7.89347 81.2911 9.27697 79.7895 9.73813L82.3185 18.5003H79.8686L77.4977 10.2762H75.5219V18.5003H72.993V1.05284H73.072ZM76.5493 8.58522C77.364 8.65051 78.1761 8.43263 78.8412 7.97033C79.3153 7.58603 79.5524 6.81742 79.5524 5.6645C79.5743 5.09177 79.4941 4.51967 79.3153 3.97356C79.1375 3.58169 78.832 3.25759 78.446 3.05123C77.9017 2.81 77.3042 2.70434 76.7074 2.74378H75.6009V8.50836H76.5493V8.58522Z" fill="#111111"/>
<path d="M85.1635 17.2703C84.342 15.9264 83.9564 14.3727 84.0571 12.8123V6.97088C84.0376 5.85704 84.1705 4.74562 84.4523 3.66585C84.7167 2.85898 85.2437 2.1576 85.9538 1.66747C86.8362 1.15947 87.8542 0.918649 88.8779 0.975718C90.5375 0.975718 91.723 1.36002 92.4343 2.20549C93.2525 3.32189 93.6438 4.68125 93.5407 6.04854V6.66343H91.1698V6.12541C91.1734 5.48169 91.1205 4.83885 91.0117 4.20388C90.9451 3.80262 90.7178 3.44336 90.3795 3.20469C89.9353 2.92112 89.4081 2.7862 88.8779 2.82038C88.3113 2.78507 87.7504 2.94871 87.2973 3.28155C87.1114 3.4339 86.9595 3.62155 86.8508 3.83301C86.7421 4.04447 86.6789 4.27529 86.6651 4.51132C86.5609 5.19845 86.5081 5.89202 86.507 6.58657V13.1198C86.4488 14.1151 86.6105 15.111 86.9812 16.0405C87.2973 16.6554 87.9296 16.8859 88.8779 16.8859C89.2524 16.9313 89.6323 16.868 89.9698 16.7039C90.3073 16.5397 90.5873 16.2822 90.7746 15.9636C91.1922 14.9917 91.3812 13.9413 91.3278 12.8892V11.6594H89.036V9.89159H93.6197V18.5769H92.0391L91.802 16.5785C91.5948 17.2482 91.1634 17.8314 90.5763 18.2353C89.9892 18.6391 89.2801 18.8406 88.5618 18.8075C87.9088 18.8448 87.2565 18.7239 86.6634 18.4556C86.0702 18.1873 85.5549 17.78 85.1635 17.2703Z" fill="#111111"/>
<path d="M98.6776 12.4293L94.8052 1.1307H97.176L99.9421 9.58541L102.629 1.1307H105L101.128 12.4293V18.5781H98.7566V12.4293H98.6776Z" fill="#111111"/>
</g>
<defs>
<filter id="filter0_d_15082_523" x="0" y="0.820862" width="109" height="25.9855" filterUnits="userSpaceOnUse" color-interpolation-filters="sRGB">
<feFlood flood-opacity="0" result="BackgroundImageFix"/>
<feColorMatrix in="SourceAlpha" type="matrix" values="0 0 0 0 0 0 0 0 0 0 0 0 0 0 0 0 0 0 127 0" result="hardAlpha"/>
<feOffset dy="4"/>
<feGaussianBlur stdDeviation="2"/>
<feComposite in2="hardAlpha" operator="out"/>
<feColorMatrix type="matrix" values="0 0 0 0 0 0 0 0 0 0 0 0 0 0 0 0 0 0 0.25 0"/>
<feBlend mode="normal" in2="BackgroundImageFix" result="effect1_dropShadow_15082_523"/>
<feBlend mode="normal" in="SourceGraphic" in2="effect1_dropShadow_15082_523" result="shape"/>
</filter>
<clipPath id="clip0_15082_523">
<rect width="101" height="17.9855" fill="white" transform="translate(4 0.820862)"/>
</clipPath>
</defs>
</svg>
