<svg viewBox="0 0 40 40" xmlns="http://www.w3.org/2000/svg"><path d="M12.75 5a.75.75 0 0 0 0 1.5H19v1.52c-6.4.41-11.46 5.89-11.46 12.59a12.75 12.75 0 0 0 4.23 9.55c.45.4.5 1.11.09 1.55l-1.43 1.47a.68.68 0 0 0 .97.95l1.88-1.93c.33-.33.82-.39 1.23-.19a11.88 11.88 0 0 0 10.41.04 1.08 1.08 0 0 1 1.22.2l1.82 1.88a.68.68 0 0 0 .98-.95l-1.36-1.4c-.42-.43-.36-1.15.1-1.55A12.74 12.74 0 0 0 32 20.62c0-6.72-5.09-12.2-11.5-12.6V6.5h6.25a.75.75 0 0 0 0-1.5h-14zm7.02 4.4c6 0 10.87 5.02 10.87 11.2v.02c0 6.19-4.87 11.2-10.87 11.2-6 0-10.88-5.01-10.88-11.2 0-6.2 4.87-11.22 10.88-11.22zm.02 2.76a.78.78 0 0 0-.78.78v8.23c0 .42.34.76.76.76a.8.8 0 0 0 .8-.8v-8.2a.78.78 0 0 0-.78-.77zm-5.68 1.2a1.09 1.09 0 0 0-.86.97 1.09 1.09 0 1 0 2.17 0 1.09 1.09 0 0 0-1.31-.96zm10.87 0a1.09 1.09 0 0 0-.86.97 1.1 1.1 0 1 0 2.18 0h-.01a1.09 1.09 0 0 0-1.31-.96zm-13.91 6.32a1.09 1.09 0 0 0-1.09 1.09 1.09 1.09 0 1 0 2.18 0 1.09 1.09 0 0 0-1.09-1.09zm17.17.13a1.09 1.09 0 0 0-.86.96 1.09 1.09 0 1 0 2.17 0 1.09 1.09 0 0 0-1.31-.96zM14.1 26.39a1.09 1.09 0 0 0-.86.96 1.09 1.09 0 1 0 2.17 0 1.09 1.09 0 0 0-1.31-.96zm10.87 0a1.09 1.09 0 0 0-.86.96 1.1 1.1 0 1 0 2.18 0h-.01a1.09 1.09 0 0 0-1.31-.96zm-5.21 2.04a1.09 1.09 0 0 0-1.09 1.09 1.09 1.09 0 1 0 2.18 0 1.09 1.09 0 0 0-1.09-1.09z" fill="#fff"/></svg>
