<svg viewBox="0 0 40 40" xmlns="http://www.w3.org/2000/svg"><path d="M10.5 6a1 1 0 1 0-2 0v5.5c0 .94.3 2.18 1.17 3.2A5.11 5.11 0 0 0 13 16.45V34a1 1 0 1 0 2 0V16.44c1.5-.2 2.59-.86 3.33-1.73a5.07 5.07 0 0 0 1.17-3.21V6a1 1 0 1 0-2 0v5.5c0 .56-.2 1.32-.7 1.92-.36.42-.92.82-1.8.99V6a1 1 0 1 0-2 0v8.41a3.02 3.02 0 0 1-1.8-1 3.1 3.1 0 0 1-.7-1.91V6Zm17.2-.7A1 1 0 0 0 26 6v28a1 1 0 1 0 2 0v-9h3.5a1 1 0 0 0 1-1c0-5.5-.76-9.72-1.73-12.79-.97-3.04-2.15-5-3.06-5.92ZM30.5 23H28V9.52c.29.65.58 1.41.86 2.3A39.61 39.61 0 0 1 30.49 23Z" fill="#fff"/></svg>