<svg viewBox="0 0 78 80" xmlns="http://www.w3.org/2000/svg"><path d="M50.44 6.64c-1.28 0-2.54.33-3.7.95-3.66 1.97-6.26 6.16-7.72 9.09-1.45-2.93-4.06-7.12-7.72-9.1a7.9 7.9 0 0 0-10.66 3.16 7.79 7.79 0 0 0 .46 8.18h-7.07a3.17 3.17 0 0 0-3.18 3.16v9.47a3.17 3.17 0 0 0 3.18 3.16h.85v26.35A6.11 6.11 0 0 0 21 67.15h36.04a6.11 6.11 0 0 0 6.13-6.09V34.71h.85a3.17 3.17 0 0 0 3.18-3.16v-9.47a3.17 3.17 0 0 0-3.18-3.16h-7.06a7.83 7.83 0 0 0-6.52-12.28zm.01 2.42a5.5 5.5 0 0 1 4.81 2.83 5.33 5.33 0 0 1-1.71 7.03H40.66c1.15-2.55 3.67-7.28 7.24-9.2a5.5 5.5 0 0 1 2.55-.66zm-22.9 0c.88 0 1.77.21 2.6.66 3.57 1.92 6.08 6.65 7.23 9.2H24.5a5.39 5.39 0 0 1 3.05-9.85zm-13.52 12.3h49.99c.4 0 .74.33.74.73v9.47c0 .41-.33.74-.74.74H14.03a.74.74 0 0 1-.74-.74v-9.47c0-.4.34-.73.74-.73zm3.28 13.36h20.5v13.8H17.3v-13.8zm22.93 0h20.49v13.8H40.24v-13.8zM17.31 50.93h20.5v13.8H21a3.68 3.68 0 0 1-3.69-3.67V50.93zm22.93 0h20.49v10.13a3.68 3.68 0 0 1-3.69 3.67h-16.8v-13.8z" fill="#fff"/></svg>
