<svg viewBox="0 0 40 40" xmlns="http://www.w3.org/2000/svg"><path d="M25.78 22.47c-1.71 0-3.1 1.48-3.1 3.3 0 1.83 1.4 3.3 3.1 3.3 1.7 0 3.08-1.47 3.08-3.3 0-1.82-1.38-3.3-3.08-3.3Zm0 5.02c-.89 0-1.6-.77-1.6-1.71 0-.95.71-1.72 1.6-1.72.88 0 1.6.77 1.6 1.72 0 .94-.72 1.7-1.6 1.7ZM16.6 3.99c-1.75 0-3.18 1.52-3.18 3.4 0 1.89 1.43 3.41 3.19 3.41s3.18-1.52 3.18-3.4c0-1.89-1.42-3.41-3.18-3.41Zm0 5.48c-1.06 0-1.93-.93-1.93-2.07 0-1.15.87-2.07 1.94-2.07 1.07 0 1.93.92 1.93 2.07 0 1.14-.86 2.07-1.93 2.07ZM13.24 21.6c-1.3 0-2.34 1.12-2.34 2.5 0 1.39 1.04 2.5 2.34 2.5 1.3 0 2.34-1.11 2.34-2.5 0-1.38-1.05-2.5-2.34-2.5Zm10.27-7.85s3.04-.84 6.18 1.5c.9.76 1.76 1.33 1.15 2.12-.34.34-.64.66-1.72-.53a6.92 6.92 0 0 0-5.61-1.44c-1.13.24-1.96.55-3.56 2.15a8.27 8.27 0 0 1-6.5 2.5c-2.52-.24-3.84-1.27-5.24-2.55-.3-.42-.3-.87-.12-1.13.17-.26.83-.52 1.2-.13.37.4 2.1 1.97 3.82 2.07 1.72.1 3.44.21 5.74-1.96 2.3-2.18 3.46-2.34 4.66-2.6Zm10.15 17.06V12.16c0-.58-.38-.65-.53-.66h-.5c-.5 0-.54.56-.54.74v18.6a2.68 2.68 0 0 1-.82 1.89c-.81.7-1.62.6-1.62.6s-20.18 0-20.66-.03a2.3 2.3 0 0 1-1.6-1c-.57-.8-.46-1.85-.46-1.85V12.3c0-.83-.67-.8-.67-.8h-.3c-.54 0-.6.58-.6.77v18.54c0 1.33.46 2.4 1.55 3.33 1.1.94 2.38.86 2.38.86h20.58c.86 0 1.98-.42 2.91-1.56.93-1.14.88-2.63.88-2.63Zm-2.4 1.9c-.55.48-1.1.6-1.4.61h-.21s-17.81 0-20.36-.02h-.3a2.33 2.33 0 0 1-1-.4 2.54 2.54 0 0 1-.96-1.42v-.02a3.22 3.22 0 0 1-.1-.65V12.3a1.42 1.42 0 0 0 0-.03c-.02-.8-.67-.78-.67-.78h-.3c-.54 0-.6.6-.6.78v18.54c0 .23.02.45.05.66a3.88 3.88 0 0 0 .66 1.75c.22.32.5.63.84.92A3.61 3.61 0 0 0 8.9 35c.24.03.39.02.39.02h20.57a3.68 3.68 0 0 0 2.51-1.12 4.08 4.08 0 0 0 1.27-2.99V12.16c0-.58-.37-.65-.52-.66h-.5c-.44 0-.52.43-.54.66v18.72a2.6 2.6 0 0 1-.55 1.55l-.27.3Zm1.87-1.88.53-.02c-.18 0-.36 0-.53.02Z" fill="#fff"/></svg>
