<?xml version="1.0" encoding="utf-8"?><svg viewBox="0 0 2000 2000" xmlns="http://www.w3.org/2000/svg" xmlns:xlink="http://www.w3.org/1999/xlink"><style>:root>svg{display:none}:root>svg:target{display:block}</style><svg viewBox="0 0 27 34" id="academy-img" xmlns="http://www.w3.org/2000/svg"><path d="M13.64.02L13.5 0 0 1.4v24.61L13.5 34 27 26.01V1.41L13.64 0zm11.6 25L13.5 31.96 1.77 25.02v-10.1l11.68 6.93.02 1.25-8.02-4.75v1.23l8.04 4.8.02 1.3-8.05-4.76v1.22l8.04 4.81 8.12-4.83V16.9l3.62-2.15v10.26zm0-11.57L22 15.33l-1.48.88-7.06-4.19-.01 1.23 6.04 3.57-.06.03-.13.07-.86.5-4.98-2.95-.01 1.22 3.93 2.33-.93.61-.02.01-2.97-1.74-.01 1.23 1.94 1.13-1.98 1.19L1.8 13.58l11.63-6.96 11.8 6.83zm0-1.22L13.43 5.3 1.77 12.22V2.99L13.5 1.76 25.23 3v9.24z" fill="#666"/></svg><svg fill="none" viewBox="0 0 61 60" id="alarm" xmlns="http://www.w3.org/2000/svg"><path fill="#68B738" d="M.5 0h60v60H.5z"/><ellipse cx="35.704" cy="24.33" rx="1.087" ry="1.085" fill="#fff"/><ellipse cx="24.831" cy="24.33" rx="1.087" ry="1.085" fill="#fff"/><ellipse cx="24.831" cy="37.351" rx="1.087" ry="1.085" fill="#fff"/><ellipse cx="30.268" cy="39.522" rx="1.087" ry="1.085" fill="#fff"/><ellipse cx="21.569" cy="30.775" rx="1.087" ry="1.085" fill="#fff"/><ellipse cx="38.966" cy="30.775" rx="1.087" ry="1.085" fill="#fff"/><ellipse cx="35.704" cy="37.351" rx="1.087" ry="1.085" fill="#fff"/><mask id="ba" fill="#fff"><path fill-rule="evenodd" clip-rule="evenodd" d="M35.422 42.058a1.058 1.058 0 011.217.196l1.825 1.875a.682.682 0 00.977-.95l-1.357-1.394c-.426-.438-.361-1.15.098-1.552 2.642-2.313 4.318-5.764 4.318-9.618C42.5 23.648 37.023 18 30.268 18c-6.756 0-12.232 5.648-12.232 12.614 0 3.815 1.641 7.234 4.236 9.547.452.403.513 1.11.09 1.544l-1.434 1.473a.681.681 0 10.976.951l1.88-1.93a1.058 1.058 0 011.226-.191 11.878 11.878 0 005.258 1.221c1.841 0 3.587-.42 5.154-1.17zm-5.154-.23c6.005 0 10.873-5.02 10.873-11.214 0-6.192-4.868-11.212-10.873-11.212-6.005 0-10.873 5.02-10.873 11.212 0 6.193 4.868 11.213 10.873 11.213zm-.76-11.53V22.94a.781.781 0 111.563 0v8.183c0 .443-.36.803-.803.803a.76.76 0 01-.76-.76V30.298z"/></mask><path fill-rule="evenodd" clip-rule="evenodd" d="M35.422 42.058a1.058 1.058 0 011.217.196l1.825 1.875a.682.682 0 00.977-.95l-1.357-1.394c-.426-.438-.361-1.15.098-1.552 2.642-2.313 4.318-5.764 4.318-9.618C42.5 23.648 37.023 18 30.268 18c-6.756 0-12.232 5.648-12.232 12.614 0 3.815 1.641 7.234 4.236 9.547.452.403.513 1.11.09 1.544l-1.434 1.473a.681.681 0 10.976.951l1.88-1.93a1.058 1.058 0 011.226-.191 11.878 11.878 0 005.258 1.221c1.841 0 3.587-.42 5.154-1.17zm-5.154-.23c6.005 0 10.873-5.02 10.873-11.214 0-6.192-4.868-11.212-10.873-11.212-6.005 0-10.873 5.02-10.873 11.212 0 6.193 4.868 11.213 10.873 11.213zm-.76-11.53V22.94a.781.781 0 111.563 0v8.183c0 .443-.36.803-.803.803a.76.76 0 01-.76-.76V30.298z" fill="#fff"/><path d="M23.784 42.199l2.866 2.79-2.866-2.79zm1.226-.191l1.765-3.59-1.765 3.59zm-3.106 2.121l-2.866-2.79 2.866 2.79zm-.976-.95l2.865 2.79-2.865-2.79zm17.156-1.394l-2.865 2.79 2.865-2.79zm.098-1.552l-2.636-3.009 2.636 3.01zm-15.91-.072l-2.662 2.985 2.662-2.985zm.09 1.544l-2.866-2.79 2.866 2.79zm17.079 1.473l2.866-2.79-2.866 2.79zm-.977.951l2.866-2.79-2.866 2.79zm-1.825-1.875l-2.866 2.79 2.865-2.79zm-1.218-.196l-1.73-3.606 1.73 3.606zm-1.648 2.987l1.826 1.875 5.731-5.581-1.826-1.875-5.731 5.58zm8.534-4.658l-1.357-1.393-5.731 5.582 1.356 1.393 5.732-5.582zm-1.49 2.855c3.49-3.056 5.683-7.595 5.683-12.627h-8c0 2.676-1.16 5.038-2.953 6.61l5.27 6.017zM46.5 30.615C46.5 21.554 39.348 14 30.268 14v8c4.431 0 8.232 3.74 8.232 8.614h8zM30.268 14c-9.08 0-16.232 7.555-16.232 16.614h8c0-4.874 3.8-8.614 8.232-8.614v-8zM14.036 30.614c0 4.98 2.147 9.477 5.574 12.532l5.324-5.97c-1.762-1.572-2.898-3.913-2.898-6.562h-8zm5.46 8.3l-1.434 1.473 5.731 5.582 1.434-1.473-5.73-5.581zm5.274 8.006l1.88-1.93-5.732-5.582-1.88 1.93 5.732 5.582zm-1.525-1.323a15.878 15.878 0 007.023 1.632v-8a7.879 7.879 0 01-3.493-.811l-3.53 7.18zm7.023 1.632c2.456 0 4.792-.56 6.884-1.565l-3.46-7.212c-1.041.499-2.198.777-3.424.777v8zm0-1.402c8.33 0 14.873-6.928 14.873-15.212h-8c0 4.1-3.192 7.212-6.873 7.212v8zM45.14 30.615c0-8.285-6.544-15.213-14.873-15.213v8c3.68 0 6.873 3.112 6.873 7.212h8zM30.268 15.402c-8.33 0-14.873 6.928-14.873 15.213h8c0-4.101 3.192-7.213 6.873-7.213v-8zM15.395 30.615c0 8.284 6.544 15.212 14.873 15.212v-8c-3.68 0-6.873-3.112-6.873-7.212h-8zm11.676-.317v.543h8v-.543h-8zm0 .543v.282h8v-.282h-8zm6.437.325v-.325h-8v.325h8zm0-.325v-.543h-8v.543h8zm0-.543V26.5h-8v3.798h8zm0-3.798v-3.56h-8v3.56h8zm-6.437-3.56v3.56h8v-3.56h-8zm0 3.56v3.798h8V26.5h-8zm3.218-8.34a4.781 4.781 0 00-4.78 4.78h8a3.219 3.219 0 01-3.22 3.22v-8zm-3.218 12.963a3.197 3.197 0 013.197-3.197v8a4.803 4.803 0 004.803-4.803h-8zm-.422 13.867a2.943 2.943 0 01-3.404.607l3.53-7.179c-1.826-.898-4.227-.683-5.857.99l5.732 5.582zm-8.587 1.93a4.682 4.682 0 006.708 0l-5.732-5.581a3.318 3.318 0 014.755 0l-5.731 5.58zm0-6.533a4.681 4.681 0 000 6.533l5.731-5.581a3.318 3.318 0 010 4.63l-5.731-5.582zm22.888-1.393c1.343 1.38.944 3.305-.133 4.248l-5.27-6.018c-1.995 1.748-2.523 5.098-.328 7.352l5.731-5.582zM30.29 26.16a3.219 3.219 0 01-3.22-3.22h8c0-2.64-2.14-4.78-4.78-4.78v8zM19.61 43.146c-1.064-.948-1.447-2.862-.114-4.231l5.731 5.581c2.18-2.238 1.675-5.565-.293-7.32l-5.324 5.97zm22.697 3.774a4.682 4.682 0 000-6.533l-5.732 5.582a3.318 3.318 0 010-4.63l5.732 5.58zm-6.708 0a4.682 4.682 0 006.708 0l-5.732-5.581a3.318 3.318 0 014.755 0l-5.731 5.58zm-5.331-18.994a3.24 3.24 0 013.24 3.24h-8a4.76 4.76 0 004.76 4.76v-8zm9.236 11.538c-1.616-1.66-3.992-1.886-5.813-1.012l3.46 7.212a2.943 2.943 0 01-3.378-.62l5.731-5.58z" fill="#fff" mask="url(#ba)"/><path fill="#fff" d="M29.5 19v-4H31v4z"/><rect x="22.5" y="15" width="15.5" height="1.5" rx=".75" fill="#fff"/></svg><svg viewBox="0 0 32 12" id="arrow-long" xmlns="http://www.w3.org/2000/svg"><path stroke="#000" stroke-width="2" d="M0 6h26"/><path d="M32 6l-6.75 5.2V.8L32 6z" vector-effect="non-scaling-stroke"/></svg><svg viewBox="0 0 32 12" id="arrow-right" xmlns="http://www.w3.org/2000/svg"><path stroke="#000" stroke-width="2" d="M0 6h18"/><path d="M24 6l-6.75 5.2V.8L24 6z" vector-effect="non-scaling-stroke"/></svg><svg viewBox="0 0 24 18" id="burger" xmlns="http://www.w3.org/2000/svg"><path stroke="#000" stroke-width="1.5" d="M0 1.25h24m-24 8h24m-24 8h24"/></svg><svg viewBox="0 0 134 100" id="cat-fat" xmlns="http://www.w3.org/2000/svg"><circle cx="69" cy="50" r="50" fill="#68B738"/><g clip-path="url(#fa)"><path d="M123.1 25.8a15.2 15.2 0 014.5-4.6c1-.7 1.6-.7 2.2.6.8 1.9 1.5 3.9.9 6a2.29 2.29 0 00.4 2.1c.6.8 1.1 1.6 1.6 2.3a6.28 6.28 0 01.9 6.2c-.37 1-.44 2.07-.2 3.1.2.99.2 2.01 0 3a3.75 3.75 0 01-2.7 3.2 5.21 5.21 0 00-3.2 2 1.05 1.05 0 01-.9.5c-1.2.2-4.2-2.5-4.2-3.7v-.6c.1-3.6-.1-3.9-3.4-5.4a4.38 4.38 0 01-1.8-1.2c-.6-.8-1.4-.7-2.3-.4-.9.3-1.4.9-1.3 1.9.3 2.42.4 4.86.3 7.3 0 .28.07.55.2.8 3.1 4.5 4.3 9.8 5.8 14.9 1.2 3.9 3.4 6 7.4 6.3.64.05 1.27.15 1.9.3a4.16 4.16 0 013.4 3.2c.7 2.1.3 2.6-1.8 2.6h-6.5a3.24 3.24 0 01-2.3-.8 11.71 11.71 0 00-3.4-2 7.26 7.26 0 01-3.4-2.6 28.59 28.59 0 00-4-4.5c-2.8-2.9-5.8-5.7-8.4-8.7a11.38 11.38 0 01-3.2-7.6c0-.9-.2-1.3-1.2-.9-.3.19-.65.3-1 .3-2.8 0-4.2 1.7-5.2 4.2-.9 2.1-2.1 4.1-3.2 6.2a10.4 10.4 0 00-1 4.2c0 2.4.6 3.2 2.8 4 1.4.5 2.7 1 3.4 2.4.8 1.6.6 2-1.1 2.1h-6.8a1.88 1.88 0 01-1.9-1.1l-1.8-3a6.05 6.05 0 01-.7-5.4c.43-1.74.47-3.55.1-5.3a8.42 8.42 0 011.7-7c.6-.7.6-1-.4-1.2a50.06 50.06 0 01-11.87-4.13.1.1 0 01-.03-.07c-3.2-1.2-3.8-1-4.7 2.3-.8 2.8-1.6 5.6-2.2 8.5-.7 3.2.1 6.2 1.1 9.2.4 1.2 1.6 1.1 2.5 1.4 2 .6 3.7 1.4 4.5 3.5.7 1.6.6 1.8-1.1 1.8-1.7 0-3.4-.1-5.2 0-1.52.03-3-.47-4.2-1.4-4.8-3.2-6.2-8.1-6.6-13.4-.2-3.3-2-5.9-4.1-8.4-.4-.5-.8-.7-1.4-.3a44.31 44.31 0 01-6.7 3 26.71 26.71 0 00-12.2 8.8 10.63 10.63 0 00-2.2 5.1c-.3 1.8.2 2.6 2 3.1s2.7 1.5 2.9 3.4c.1.8-.2 1.2-1 1.2h-8.1a1.65 1.65 0 01-1.3-.8 8.56 8.56 0 01-1.9-5.5c-.05-3.46.25-6.9.9-10.3a6.3 6.3 0 013.4-4.8c5.9-2.8 9-8.1 11.8-13.6.6-1.1.1-1.3-.9-1.2-2.8.39-5.45 1.5-7.7 3.2a70.61 70.61 0 00-8.3 7.1 16.67 16.67 0 01-10.3 4.9C3.1 52.5-.3 48.4 0 41.8c.07-2.25.92-4.4 2.4-6.1a4.25 4.25 0 014.5-1.5c1.5.4 1.9 1.2 1.3 2.7-.3.6-.7 1.1-1 1.7a7.5 7.5 0 00-1 2c-1.1 3 .4 5.1 3.5 5.4 3.3.3 6-1.1 8.5-3.1 3.01-2.41 5.7-5.2 8-8.3a20.8 20.8 0 0114.4-8.1c2.3-.3 4.3-1.3 6.5-1.9a41.51 41.51 0 0112.7-1.8 13 13 0 005.8-1.1c4.9-2 10-2 15.1-1 4 .8 8 1.8 11.9 2.8 2.32.43 4.7.36 7-.2a67.8 67.8 0 0113.4-2c2.96-.14 5.92.44 8.6 1.7 2 .9 2 .9 1.5 2.8z"/></g><defs><clipPath id="fa"><path fill="#fff" transform="translate(0 20)" d="M0 0h134v56H0z"/></clipPath></defs></svg><svg viewBox="0 0 100 106" id="cat-slim" xmlns="http://www.w3.org/2000/svg"><circle cx="50" cy="56" r="50" fill="#68B738"/><g clip-path="url(#ga)"><path d="M69.84 0h-.38A3.5 3.5 0 0068 1.59c-.56 1.08-1 2.23-1.29 3.41a1.63 1.63 0 01-1.48 1.34A7.34 7.34 0 0060 10.12a27.31 27.31 0 00-1.85 4c-1.42 3.68-2.51 7.48-3.85 11.19C53.67 27 53.64 27 51.74 27c-2.27 0-2.11-.35-2.14 2.15 0 .79.24 1.19 1.08 1.15.26 0 .65-.13.75.21.1.34-.24.49-.44.69a9 9 0 01-4.33 2.44c-1.9.51-3.84.91-5.69 1.53-4.75 1.59-9.14 3.81-12.56 7.57a28 28 0 00-4.74 7.84c-3.67 8.64-5.45 17.74-6.83 26.93-.65 4.31-1.11 8.64-1.46 13C15.2 92.65 15 94.82 15 97h33.33a2.1 2.1 0 00-.23-1.28 5 5 0 00-3.83-3.07c-.7-.16-.78-.37-.35-.92.7-.94 1.24-1.98 1.59-3.1 1.63-4.81 2.26-9.83 3.05-14.8A30 30 0 0152 63a21.6 21.6 0 015.59-6.37c.83-.63.86-.63 1 .44.1.71.12 1.44.17 2.16.3 4.72.24 9.46-.18 14.18a61.67 61.67 0 00-.15 11c.4 4.25 1.16 8.47 2.27 12.59H74a5.41 5.41 0 00-4.24-4.44 9 9 0 00-3.76.2c-.6.14-.85 0-.9-.65a56.35 56.35 0 011-15.82c1.33-6 2.36-12.07 3.06-18.18a17.75 17.75 0 012.28-7c1.19-2.12 2.23-4.32 3.4-6.45a5.87 5.87 0 00.42-5.19c-.27-.71-.53-1.43-.86-2.11-1-1.95-2-3.88-2.92-5.85-.49-1-.38-1.12.71-1.15 1.63 0 1.63 0 1.66-1.64v-.66c0-.69-.26-1.07-1-1h-1.52c-.69 0-.89-.29-.72-1a6.24 6.24 0 015.13-4.43 22 22 0 016.62.43 1 1 0 001.25-.64c.4-1 .84-2 1.29-3a1 1 0 00-.1-1.14C81.6 13.22 78.13 9.43 73.4 7a1.49 1.49 0 01-.88-1.12 19.6 19.6 0 00-1.27-4.16A3.5 3.5 0 0069.84 0z"/></g><defs><clipPath id="ga"><path fill="#fff" transform="translate(15)" d="M0 0h70v97H0z"/></clipPath></defs></svg><svg fill="none" viewBox="0 0 80 80" id="eat" xmlns="http://www.w3.org/2000/svg"><path fill="#68B738" d="M0 0h80v80H0z"/><path fill-rule="evenodd" clip-rule="evenodd" d="M46.617 25.076a1 1 0 011.09.217c.909.908 2.097 2.878 3.059 5.918C51.737 34.28 52.5 38.508 52.5 44a1 1 0 01-1 1H48v9a1 1 0 11-2 0V26a1 1 0 01.617-.924zM48 43h2.491c-.086-4.816-.786-8.513-1.632-11.186-.278-.88-.57-1.642-.859-2.295V43zM34 25a1 1 0 011 1v28a1 1 0 11-2 0V26a1 1 0 011-1z" fill="#fff"/><path fill-rule="evenodd" clip-rule="evenodd" d="M29.5 25a1 1 0 011 1v5.5c0 .557.192 1.315.7 1.917.48.566 1.314 1.083 2.8 1.083a1 1 0 110 2c-2.015 0-3.43-.733-4.326-1.792A5.068 5.068 0 0128.5 31.5V26a1 1 0 011-1z" fill="#fff"/><path fill-rule="evenodd" clip-rule="evenodd" d="M38.5 25a1 1 0 00-1 1v5.5a3.07 3.07 0 01-.7 1.917c-.48.566-1.315 1.083-2.8 1.083a1 1 0 000 2c2.014 0 3.43-.733 4.326-1.792A5.068 5.068 0 0039.5 31.5V26a1 1 0 00-1-1z" fill="#fff"/></svg><svg viewBox="0 0 19 14" id="email" xmlns="http://www.w3.org/2000/svg"><path stroke="#222" stroke-width="1.3" d="M1.18 6v8m17-8v8M.53 13.35h18m-18-12h18m-.65 1.83l-8.35 6.5-8.35-6.5V1.65h16.7v1.53z" fill="none"/></svg><svg viewBox="0 0 78 80" id="gift" xmlns="http://www.w3.org/2000/svg"><path d="M64.02 34.71H14.03a3.17 3.17 0 01-3.18-3.16v-9.47a3.17 3.17 0 013.18-3.16h49.98a3.17 3.17 0 013.19 3.16v9.47a3.17 3.17 0 01-3.18 3.16zM14.03 21.35c-.4 0-.74.33-.74.73v9.47c0 .41.33.74.74.74h49.98c.41 0 .75-.33.75-.74v-9.47c0-.4-.34-.73-.75-.73H14.03z" fill="#fff"/><path d="M57.04 67.15H21a6.11 6.11 0 01-6.13-6.09V33.5c0-.67.55-1.2 1.22-1.2.68 0 1.22.53 1.22 1.2v27.56A3.68 3.68 0 0021 64.73h36.04a3.68 3.68 0 003.7-3.67V33.5a1.22 1.22 0 012.44 0v27.56a6.11 6.11 0 01-6.14 6.09z" fill="#fff"/><path d="M39.02 67.15c-.67 0-1.22-.54-1.22-1.21V33.5c0-.67.55-1.2 1.22-1.2.68 0 1.22.53 1.22 1.2v32.44c0 .67-.54 1.2-1.22 1.2zM23.81 21.34a7.8 7.8 0 01-3.17-10.6A7.9 7.9 0 0131.3 7.6c5.82 3.13 8.96 11.86 9.09 12.23l-2.3.8c-.03-.08-2.96-8.22-7.95-10.9a5.46 5.46 0 00-7.36 2.17 5.39 5.39 0 002.2 7.32l-1.17 2.13z" fill="#fff"/><path d="M54.23 21.34l-1.16-2.13a5.38 5.38 0 00-1.03-9.92 5.43 5.43 0 00-4.14.43c-4.98 2.68-7.91 10.82-7.94 10.9l-2.3-.8c.13-.37 3.27-9.1 9.08-12.23a7.86 7.86 0 0111.29 9.1c-.6 2-1.95 3.66-3.8 4.65zm7.72 29.59H16.09c-.67 0-1.22-.54-1.22-1.21 0-.67.55-1.21 1.22-1.21h45.86c.67 0 1.22.54 1.22 1.21 0 .67-.55 1.21-1.22 1.21z" fill="#fff"/></svg><svg fill="none" viewBox="0 0 61 60" id="glass" xmlns="http://www.w3.org/2000/svg"><path fill="#68B738" d="M.5 0h60v60H.5z"/><g clip-path="url(#kclip0_95_25)" fill="#fff"><path d="M36.276 31.473c-1.706 0-3.088 1.479-3.088 3.301 0 1.824 1.383 3.302 3.088 3.302 1.706 0 3.088-1.478 3.088-3.302 0-1.823-1.383-3.3-3.088-3.3zm0 5.013c-.884 0-1.6-.766-1.6-1.71 0-.947.716-1.713 1.6-1.713.884 0 1.602.766 1.602 1.712 0 .945-.718 1.711-1.602 1.711zM27.107 12.99c-1.76 0-3.188 1.525-3.188 3.407 0 1.882 1.427 3.407 3.188 3.407 1.76 0 3.187-1.524 3.187-3.407s-1.427-3.407-3.187-3.407zm0 5.476c-1.07 0-1.936-.926-1.936-2.07 0-1.142.866-2.069 1.935-2.069 1.07 0 1.936.927 1.936 2.07 0 1.143-.866 2.069-1.936 2.069zM23.727 30.61c-1.294 0-2.341 1.12-2.341 2.503s1.047 2.503 2.34 2.503c1.295 0 2.342-1.12 2.342-2.503 0-1.382-1.047-2.503-2.341-2.503zM23.5 32.5c-.459 0 1.158 1.104 1.158.613 0-.49-1.617.387-1.158.387.459 0 1.057-.877 1.057-.388 0 .49-.598-.612-1.057-.612zM34 22.763s3.04-.839 6.178 1.493c.907.76 1.766 1.337 1.152 2.123-.343.34-.637.657-1.716-.524-1.054-.76-2.72-1.898-5.614-1.442-1.128.237-1.961.551-3.555 2.15-1.594 1.598-3.973 2.725-6.498 2.489-2.525-.236-3.849-1.258-5.246-2.542-.294-.42-.294-.865-.123-1.127.171-.262.833-.524 1.201-.132.368.394 2.109 1.966 3.825 2.07 1.716.105 3.433.21 5.737-1.965 2.306-2.174 3.458-2.331 4.66-2.593z"/><mask id="ka"><path d="M44.146 39.816V21.157c0-.578-.374-.65-.524-.655h-.506c-.493 0-.536.557-.538.739V21.3c.002 3.609.01 18.253-.002 18.54a2.681 2.681 0 01-.82 1.887c-.809.695-1.618.603-1.618.603s-20.177 0-20.655-.026c-.38-.066-1.042-.21-1.606-1.01-.564-.798-.453-1.847-.453-1.847V21.315c0-.839-.675-.812-.675-.812h-.307c-.536 0-.585.588-.588.776v18.537c0 1.337.454 2.398 1.548 3.337 1.094.939 2.375.856 2.375.856s19.723 0 20.581-.002c.859-.003 1.986-.417 2.916-1.555.93-1.14.872-2.636.872-2.636z"/></mask><path d="M44.146 39.816V21.157c0-.578-.374-.65-.524-.655h-.506c-.493 0-.536.557-.538.739V21.3c.002 3.609.01 18.253-.002 18.54a2.681 2.681 0 01-.82 1.887c-.809.695-1.618.603-1.618.603s-20.177 0-20.655-.026c-.38-.066-1.042-.21-1.606-1.01-.564-.798-.453-1.847-.453-1.847V21.315c0-.839-.675-.812-.675-.812h-.307c-.536 0-.585.588-.588.776v18.537c0 1.337.454 2.398 1.548 3.337 1.094.939 2.375.856 2.375.856s19.723 0 20.581-.002c.859-.003 1.986-.417 2.916-1.555.93-1.14.872-2.636.872-2.636z"/><path d="M44.146 39.816h-20v.387l.015.387 19.985-.774zm-.524-19.314l.71-19.987-.355-.013h-.355v20zm-1.044.739l-20-.15v.15h20zm0 .06h-20v.008l20-.008zm-.002 18.54l-19.985-.758v.013l19.986.745zm-.82 1.887l13.039 15.165.431-.37.41-.396-13.88-14.399zm-1.618.603l2.26-19.872-1.127-.128h-1.133v20zm-20.655-.026l-3.395 19.71 1.133.195 1.149.064 1.113-19.97zm-1.606-1.01L1.533 52.824l.004.006 16.34-11.533zm-.453-1.847l19.89 2.098.11-1.046v-1.052h-20zm-.675-18.945v20h.388l.387-.016-.775-19.984zm-.895.776l-19.998-.288-.002.144v.144h20zm1.548 21.874L4.376 58.33l13.026-15.177zm2.375.856v-20h-.643l-.64.041 1.283 19.96zm23.497-1.557l15.49 12.653.005-.008-15.495-12.645zm20.872-2.636V21.157h-40v18.659h40zm0-18.659c0-4.97-1.859-11.419-7.618-16.084-4.89-3.96-10.03-4.481-12.196-4.558l-1.42 39.974a19.462 19.462 0 01-11.56-4.332c-5.535-4.483-7.206-10.608-7.206-15h40zM43.622.502h-.506v40h.506v-40zm-.506 0a20.47 20.47 0 00-12.283 4.083 20.527 20.527 0 00-6.419 8.034 21.136 21.136 0 00-1.835 8.473l39.999.298c-.006.733-.014 3.914-1.667 7.598a19.474 19.474 0 01-6.096 7.61 19.53 19.53 0 01-11.699 3.904v-40zM22.578 21.241V21.292h40v-.001-.001-.001-.001-.001-.001-.001-.001-.001-.001-.001-.001-.001-.001-.001-.001-.001-.001-.001-.001-.001-.001-.001-.001-.001-.001-.001-.001-.001-.001-.001-.001-.001-.001-.001-.001-.001-.001-.001-.001-.001-.001-.001-.001-.001-.001-.001-.001-.001-.001h-40zm0 .05V21.302h40V21.3v-.001-.001-.001-.001-.001-.001-.001-.001h-40zm0 .018l.004 10.511a8664.752 8664.752 0 01-.002 7.252c-.002.788-.006.45.01.011L62.563 40.6c.02-.51.018-1.37.018-1.45l.002-1.807v-5.529c0-4.15-.003-8.719-.004-10.52l-40 .016zm.012 17.787c.05-1.35.384-7.042 5.285-11.766l27.761 28.797c6.396-6.166 6.852-13.536 6.927-15.54L22.59 39.096zm6.126-12.532a17.512 17.512 0 017.807-3.844 17.955 17.955 0 014.628-.362 19.312 19.312 0 011.172.093l.037.004.019.002c.01.001.019.002-2.241 19.874-2.26 19.872-2.25 19.873-2.241 19.874l.018.003a42.98 42.98 0 00.269.028 20.68 20.68 0 002.597.093 22.044 22.044 0 003.983-.468 22.487 22.487 0 0010.03-4.968l-26.078-30.33zM40.138 42.33v-20h-.001H36.982a17380.765 17380.765 0 01-14.032-.01l-2.357-.007c-1.071-.005-.613-.013.002.022L18.37 62.274c.97.054 7.17.051 11.606.054l6.997.003h3.164v-20zM22.877 22.595c.432.074 2.526.427 4.938 1.653a17.618 17.618 0 016.401 5.514L1.537 52.83c4.995 7.076 11.877 8.725 14.551 9.186l6.789-39.42zm11.344 7.174c2.348 3.33 2.908 6.508 3.08 7.954a16.586 16.586 0 01.049 3.439 18.522 18.522 0 01-.027.29l-.005.047-.002.024-.002.011c0 .006 0 .012-19.89-2.086s-19.89-2.092-19.891-2.086l-.002.012-.002.024a19.88 19.88 0 00-.069.827 23.438 23.438 0 00.117 4.197c.257 2.17 1.043 6.272 3.956 10.401L34.22 29.768zm3.203 9.68V21.314h-40v18.133h40zm0-18.134c0-6.89-3.412-14.004-10.265-17.999A20.69 20.69 0 0016 .516c-.013.001-.025.002.75 19.987.776 19.984.763 19.985.751 19.986h-.024l-.05.002a28.228 28.228 0 01-.3.008 19.363 19.363 0 01-17.35-10.06 19.028 19.028 0 01-2.352-9.124h40zM16.748.503h-.307v40h.307v-40zm-.307 0c-4.037 0-8.32 1.191-12.061 3.905a20.562 20.562 0 00-6.553 7.946 21.167 21.167 0 00-1.972 8.637l39.996.577c-.011.758-.045 3.996-1.784 7.718a19.438 19.438 0 01-6.2 7.5 19.477 19.477 0 01-11.426 3.717v-40zM-4.146 21.279v18.537h40v-.007-.007-.008-.008-.008-.008-.009-.009-.01-.009-.01-.01-.01-.011-.01-.012-.012-.011-.013-.012-.013-.012-.014-.013-.014-.014-.014-.014-.015-.015-.015-.016-.016-.016-.016-.016-.017-.017-.018-.017-.018-.018-.018-.019-.019-.019-.019-.02-.02-.02-.02-.02-.02-.022-.021-.021-.022-.022-.022-.023-.022-.023-.023-.023-.024-.023-.024-.025-.024-.025-.024-.025-.026-.025-.026-.026-.026-.026-.027-.027-.026-.028-.027-.028-.027-.028-.029-.028-.029-.028-.03-.029-.029-.03-.03-.03-.03-.03-.03-.031-.03-.032-.031-.032-.031-.032-.032-.032-.033-.032-.033-.033-.033-.033-.034-.033-.034-.034-.034-.035-.034-.035-.035-.034-.035-.036-.035-.036-.036-.035-.037-.036-.036-.037-.036-.037-.037-.037-.038-.037-.038-.037-.038-.038-.038-.039-.038-.039-.038-.04-.038-.04-.039-.04-.039-.04-.04-.039-.04-.04-.04-.04-.041-.041-.04-.042-.04-.042-.041-.042-.041-.042-.041-.042-.042-.042-.042-.043-.042-.042-.043-.043-.043-.042-.044-.043-.043-.043-.044-.043-.044-.043-.044-.044-.044-.044-.044-.044-.044-.045-.044-.045-.045-.044-.045-.045-.045-.045-.045-.045-.045-.046-.045-.046-.045-.046-.046-.045-.046-.046-.046-.046-.046-.046-.046-.047-.046-.046-.047-.046-.047-.046-.047-.046-.047-.047-.047-.047-.046-.047-.047-.047-.048-.047-.047-.047-.047-.047-.048-.047-.047-.048-.047-.048-.047-.048-.047-.048-.047-.048-.048-.047-.048-.048-.047-.048-.048-.048-.047-.048-.048-.048-.048-.047-.048-.048-.048-.048-.048-.047-.048-.048-.048-.048-.048-.048-.047-.048-.048-.048-.048-.048-.047-.048-.048-.048-.047-.048-.048-.048-.047-.048-.047-.048-.048-.047-.048-.047-.048-.047-.047-.048-.047-.048-.047-.047-.047-.047-.048-.047-.047-.047-.047-.047-.047-.046-.047-.047-.047-.046-.047-.046-.047-.046-.047-.046-.046-.047-.046-.046-.046-.046-.046-.046-.046-.045-.046-.046-.045-.046-.045-.045-.045-.046-.045-.045-.045-.044-.045-.045-.044-.045-.044-.045-.044-.044-.044-.044-.044-.044-.044-.043-.044-.043-.044-.043-.043-.043-.043-.043-.043-.043-.042-.043-.042-.042-.042-.042-.042-.042-.042-.041-.042-.041-.041-.041-.041-.041-.04-.041-.041-.04-.04-.04-.04-.04-.04-.04-.04-.039-.039-.04-.038-.039-.038-.039-.038-.039-.038-.038-.037-.038-.038-.037-.037-.037-.037-.037-.037-.036-.037-.036-.036-.036-.035-.036-.035-.035-.035-.035-.035-.035-.034-.034-.034-.034-.034-.034-.033-.033-.033-.033-.033-.032-.032-.033-.032-.031-.032-.031-.031-.032-.03-.031-.03-.03-.03-.03-.03-.03-.03-.028-.03-.028-.029-.028-.028-.028-.028-.027-.028-.027-.026-.027-.027-.026-.026-.026-.025-.026-.025-.025-.025-.024-.024-.025-.023-.024-.023-.024-.023-.022-.023-.022-.022-.022-.022-.02-.022-.02-.022-.02h-40zm0 18.537c0 7.063 2.92 13.705 8.522 18.514l26.051-30.354c1.295 1.111 2.855 2.871 3.994 5.373a15.716 15.716 0 011.433 6.467h-40zM4.377 58.33a23.586 23.586 0 0010.48 5.17 23.615 23.615 0 005.087.51 21.336 21.336 0 00.991-.034l.063-.004.03-.002h.016c.008-.001.016-.002-1.267-19.96-1.283-19.96-1.276-19.96-1.268-19.96l.015-.002.03-.001.062-.004a16.029 16.029 0 01.372-.018 18.5 18.5 0 011.583.008c.737.037 1.607.13 2.571.334 1.88.398 4.642 1.34 7.285 3.609L4.377 58.33zm15.4-14.32v20H22.872l6.875-.001c5.007 0 10.202 0 10.668-.002l-.113-40H39.22l-2.443.001-7.033.001h-9.966-.001v20zm20.638 19.997c7.104-.02 13.8-3.336 18.348-8.903L27.786 29.8c2.686-3.29 7.128-5.777 12.516-5.792l.113 40zm18.354-8.91c3.245-3.977 4.434-8.096 4.913-10.529a24.742 24.742 0 00.464-4.58 21.801 21.801 0 00-.013-.895l-.001-.026v-.013c-.001-.006-.001-.013-19.986.762-19.985.774-19.986.767-19.986.761v-.013l-.001-.025-.002-.05a17.128 17.128 0 01.016-1.569c.033-.576.105-1.28.262-2.075.275-1.4 1.028-4.201 3.344-7.039l30.99 25.291z" mask="url(#ka)"/></g><defs><clipPath id="kclip0_95_25"><path fill="#fff" transform="translate(15.5 13)" d="M0 0h29v31H0z"/></clipPath></defs></svg><svg viewBox="0 0 60 60" id="htmlacademy" xmlns="http://www.w3.org/2000/svg"><path d="M30.2 5H30L10.3 7.1v36.2L30 55l19.7-11.7V7.1L30.2 5zm17 36.8L30 52 12.8 41.8V27l17.1 10.2V39l-11.7-7v1.8L30 40.9v1.9l-11.8-7v1.8l11.8 7 11.9-7.1v-7.6l5.3-3.2v15.1zm-.1-17l-4.7 2.8-2.2 1.3-10.3-6.1v1.8l8.8 5.3h-.1l-.2.1-1.3.7-7.3-4.3v1.8l5.8 3.4-1.4.9-4.3-2.6v1.8l2.9 1.7-2.9 1.7-17-10.1 17-10.2 17.2 10zm.1-1.8L29.9 12.8 12.8 23V9.4L30 7.6l17.2 1.8V23z"/></svg><svg fill="none" viewBox="0 0 61 60" id="leaf" xmlns="http://www.w3.org/2000/svg"><path fill="#68B738" d="M.5 0h60v60H.5z"/><g clip-path="url(#mclip0_95_18)"><path d="M43.344 16.767c-.1-.45-.48-.767-.912-.767h-.005c-4.938.033-16.945.916-21.793 8.38-2.518 3.878-2.735 8.913-.644 14.965.016.047.048.079.07.122-.747 1.973-1.037 3.286-1.044 3.323-.11.54.214 1.072.72 1.188a.88.88 0 00.197.022c.433 0 .822-.321.916-.79.02-.102 2.409-10.373 10.854-16.378.431-.306.547-.927.26-1.387-.288-.46-.87-.585-1.3-.277-4.79 3.405-7.739 8.008-9.473 11.656-1.242-4.578-.916-8.377.986-11.305 3.743-5.764 12.622-7.154 17.982-7.448-1.153 1.801-2.413 5.103-2.413 10.929 0 3.12-.83 5.522-2.465 7.14-2.62 2.591-6.88 2.834-9.993 2.584-.518-.045-.967.371-1.006.922-.04.55.347 1.03.863 1.072.623.051 1.29.082 1.981.082 3.17 0 6.87-.663 9.43-3.194 2.034-2.011 3.065-4.906 3.065-8.605 0-9.099 3.216-11.096 3.232-11.105.39-.209.594-.677.492-1.129z" fill="#fff"/></g><defs><clipPath id="mclip0_95_18"><path fill="#fff" transform="translate(15.5 14)" d="M0 0h30v32H0z"/></clipPath></defs></svg><svg viewBox="0 0 20 20" id="phone" xmlns="http://www.w3.org/2000/svg"><g clip-path="url(#na)"><path d="M17.9 9.4H9.4v1.2h8.5l-2.1 2.1.9.9 3.1-3.1a.75.75 0 000-.9l-3.1-3.1-.9.9 2.1 2zm-9.8 10v-6.2a.65.65 0 00-.6-.6H3.1a1.22 1.22 0 001.2 1.2h2.5v5H3.1a1.79 1.79 0 01-1.9-1.7v-14a1.77 1.77 0 011.7-1.8h3.9v5H4.4a1.22 1.22 0 00-1.2 1.2h4.4a.65.65 0 00.6-.6V.6a.86.86 0 00-.7-.6H3.1A3 3 0 000 2.9v13.9a2.89 2.89 0 002.9 3.1h4.6a.5.5 0 00.6-.5z"/></g><defs><clipPath id="na"><path fill="#fff" d="M0 0h20v20H0z"/></clipPath></defs></svg><svg fill="none" viewBox="0 0 60 60" id="plus" xmlns="http://www.w3.org/2000/svg"><path stroke="#D3D3D3" stroke-width="2" vector-effect="non-scaling-stroke" d="M31 0v60M60 31H0"/></svg><svg viewBox="0 0 2000 2000" id="sprite" xmlns="http://www.w3.org/2000/svg"/><svg viewBox="0 0 20 18" id="tg" xmlns="http://www.w3.org/2000/svg"><path fill-rule="evenodd" clip-rule="evenodd" d="M19.46.15c.18.15.27.38.23.61l-2.63 15.76a.66.66 0 01-1.01.44l-7.88-5.25a.66.66 0 01-.15-.96l2.61-3.26-4.36 2.9a.66.66 0 01-.65.05L.36 7.8a.66.66 0 01.08-1.2L18.82.03a.66.66 0 01.64.11zM2.33 7.32L5.86 9.1l7.56-5.04a.66.66 0 01.88.96l-4.8 6 6.43 4.3 2.28-13.66L2.33 7.32z" fill="#666"/></svg><svg fill="none" viewBox="0 0 24 19" id="tick" xmlns="http://www.w3.org/2000/svg"><path d="M9 15.499L1.4 6.901 0 8.485l9 10.182 15-16.97L22.6 0 9 15.499z" fill="#68B738"/></svg><svg viewBox="0 0 28 22" id="vk" xmlns="http://www.w3.org/2000/svg"><path d="M1 5.34c0-.86.52-1.32 1.55-1.38l3.97.02c.26 0 .44.13.53.38.4 1.26.86 2.34 1.37 3.25.5.92 1.17 1.97 1.99 3.16.07.15.18.23.34.23.13 0 .22-.06.3-.18l.07-.28.03-4.35c0-.3-.07-.5-.23-.6-.15-.1-.43-.18-.83-.23-.32-.05-.48-.23-.48-.55 0-.07 0-.12.02-.15.38-1.09 1.44-1.63 3.2-1.63l1.5-.03c.67 0 1.23.16 1.67.48.44.32.67.82.67 1.5v5.72c.12.08.24.12.34.12.27 0 .5-.15.7-.45 1.95-2.58 3-4.31 3.17-5.18a.3.3 0 01.05-.13c.12-.25.33-.47.61-.65.29-.19.53-.31.75-.38a.55.55 0 01.24-.05h4.13l.26.03c.36 0 .63.16.83.47.07.1.12.21.15.33a2.4 2.4 0 01.06.55v.18a6.11 6.11 0 01-.94 2.2 23.4 23.4 0 01-1.93 2.53c-.79.9-1.27 1.5-1.47 1.78a.93.93 0 00-.24.56c0 .13.07.28.21.45l3.9 4.63c.2.26.31.56.31.88 0 .38-.16.7-.48.95-.32.25-.7.4-1.14.43l-.46.02h-4.04c-.02 0-.06 0-.11.02a.86.86 0 01-.1.01c-.4 0-.76-.16-1.1-.48-.12-.13-.96-1.12-2.5-2.97a1.39 1.39 0 00-.38-.32 38.47 38.47 0 00-.53 2.24l-.08.42a1.4 1.4 0 01-1.12 1.06l-.37.02h-2.61c-1.48 0-2.95-.63-4.41-1.9a19.3 19.3 0 01-3.96-4.95 47.51 47.51 0 01-3.28-7.05A1.92 1.92 0 011 5.34zm16.01 6.51c-.37 0-.7-.1-1.01-.29a.9.9 0 01-.45-.79V5c0-.34-.1-.58-.27-.72-.18-.14-.49-.21-.93-.21l-1.52.05c-.76 0-1.34.12-1.73.37.78.36 1.17.93 1.17 1.71v4.43a1.5 1.5 0 01-.53 1.04 1.6 1.6 0 01-1.07.42c-.53 0-.94-.24-1.22-.73a26.16 26.16 0 01-3.1-5.63l-.23-.66-3.55-.02c-.23 0-.36.01-.38.03-.03.03-.04.1-.04.22 0 .15.01.3.05.48l.56 1.4c1.49 3.64 3.11 6.51 4.86 8.6 1.75 2.1 3.47 3.15 5.16 3.15h2.66c.1 0 .19-.03.24-.09.05-.06.1-.17.13-.34l.06-.25.5-2.21c.15-.3.27-.5.38-.6.2-.2.42-.28.69-.28.43 0 .86.24 1.3.73l2.27 2.71c.14.22.3.33.45.33h4.4c.53 0 .8-.13.8-.38a.47.47 0 00-.08-.25l-3.87-4.55c-.3-.35-.45-.73-.45-1.13 0-.4.14-.8.43-1.16.23-.34.68-.9 1.34-1.67.67-.78 1.25-1.51 1.75-2.19.5-.68.82-1.3.98-1.85l.08-.33a.37.37 0 01-.02-.16.54.54 0 00-.03-.19h-4.18c-.27.1-.48.25-.64.45L21.8 6c-.45 1.16-1.6 2.94-3.5 5.36-.36.33-.8.5-1.3.5z" fill="#666"/></svg><svg viewBox="0 0 24 19" id="yt" xmlns="http://www.w3.org/2000/svg"><path d="M15.85 8.8l-5.24-3.5a.65.65 0 00-1.01.55v6.98a.65.65 0 001.01.54l5.24-3.49a.65.65 0 000-1.09zm-4.94 2.8V7.08l3.4 2.27-3.4 2.27zm12.48-8.56a2.4 2.4 0 00-1.45-1.63C18.22-.02 12.25 0 12 0S5.78-.02 2.06 1.4A2.4 2.4 0 00.61 3.05 25.32 25.32 0 000 9.34c0 3.26.33 5.22.61 6.3a2.4 2.4 0 001.45 1.63c3.72 1.43 9.69 1.4 9.94 1.4h.08c.75 0 6.31-.04 9.86-1.4a2.4 2.4 0 001.45-1.64c.28-1.07.61-3.03.61-6.3 0-3.25-.33-5.22-.61-6.29zm-1.27 12.27a1.1 1.1 0 01-.65.74c-3.5 1.34-9.4 1.32-9.47 1.32-.07 0-5.98.02-9.47-1.32a1.09 1.09 0 01-.65-.74c-.27-1-.57-2.85-.57-5.97 0-3.12.3-4.97.57-5.97a1.1 1.1 0 01.65-.74C6.03 1.29 11.93 1.3 12 1.3c.07 0 5.98-.02 9.47 1.32a1.1 1.1 0 01.65.74c.27 1 .57 2.85.57 5.97 0 3.12-.3 4.96-.57 5.97z" fill="#666"/></svg></svg>